<?xml version="1.0" encoding="UTF-8"?>
<svg width="24px" height="25px" viewBox="0 0 24 25" version="1.1" xmlns="http://www.w3.org/2000/svg" xmlns:xlink="http://www.w3.org/1999/xlink">
    <title>Group 10 Copy 11</title>
    <defs>
        <polygon id="path-1" points="0.0962423605 0.441236309 20.6396399 0.441236309 20.6396399 23.2257623 0.0962423605 23.2257623"></polygon>
    </defs>
    <g id="UI" stroke="none" stroke-width="1" fill="none" fill-rule="evenodd">
        <g id="Group-10-Copy-11">
            <g id="Group-3" transform="translate(2.160540, 0.116669)">
                <mask id="mask-2" fill="white">
                    <use xlink:href="#path-1"></use>
                </mask>
                <g id="Clip-2"></g>
                <path d="M18.3591898,8.40012603 L12.5792048,8.40012603 C12.8552138,6.32654764 12.3642311,4.45227907 11.167832,2.70332183 L14.9325731,2.70332183 L14.9325731,0.441236309 L17.2135634,0.441236309 L17.2135634,2.68549737 C17.5581695,2.68549737 17.8763091,2.68063616 18.1944486,2.68603751 C19.1796549,2.70386197 19.9455664,3.09816054 20.4073818,3.99802551 C20.5942686,4.36261665 20.6380195,4.75853563 20.6380195,5.16255664 C20.6374794,7.73630008 20.6380195,10.3105836 20.6380195,12.8848672 C20.6374794,15.4942596 20.6309977,18.104192 20.6396672,20.7141245 C20.6434209,21.7501035 20.2550638,22.5403211 19.3044261,23.0107787 C18.9112078,23.2052273 18.4850413,23.2262926 18.0556339,23.2257623 C15.6061215,23.224132 13.1566092,23.2257623 10.7070968,23.2252123 C8.30187547,23.224132 5.89665416,23.2225116 3.49197299,23.219811 C3.0911928,23.219811 2.6904126,23.2192708 2.29017254,23.2106287 C1.12834209,23.1852423 0.175003751,22.1930143 0.142055514,21.1618965 C0.109647412,20.148063 0.103705926,19.1331493 0.0988447112,18.1182356 C0.0929032258,16.7732993 0.0988447112,15.4283631 0.0999249812,14.0828867 L0.0999249812,13.844147 C0.851792948,14.2146797 1.5987997,14.5830518 2.39603901,14.9762701 L2.39603901,20.9528642 L4.30757689,20.9528642 C6.75708927,20.9528642 9.20660165,20.9534044 11.656114,20.9534044 C13.8209752,20.9534044 15.9852963,20.9507037 18.1496174,20.9582656 C18.3662116,20.9588057 18.3672918,20.8529392 18.3672918,20.6941395 C18.3624306,17.2653623 18.3608102,13.836045 18.3591898,10.4067277 C18.3591898,9.74992348 18.3591898,9.09203901 18.3591898,8.40012603" id="Fill-1" fill="#1781F1" mask="url(#mask-2)"></path>
            </g>
            <path d="M11.3954449,7.3980135 C11.3814014,4.88206452 9.45257914,2.81766842 6.8323841,2.82090542 C4.25485971,2.82415004 2.28660765,4.80752588 2.27249787,7.38883121 C2.25906077,9.90045911 4.31103376,11.9367682 6.81293923,11.9394727 C9.3423916,11.9427097 11.3916639,9.91180195 11.3954449,7.3980135 M0.000216054014,7.36236459 C-0.0176084021,3.60464516 3.12435709,0.511831958 6.87181395,0.540459115 C10.5965851,0.568006002 13.6888582,3.6051853 13.6695046,7.38883121 C13.6499685,11.2486362 10.5506737,14.2231598 6.81780045,14.2145364 C2.95313428,14.2053353 -0.0251702926,11.0374434 0.000216054014,7.36236459" id="Fill-4" fill="#1781F1"></path>
            <path d="M18.2236159,13.0667847 L18.2236159,18.7673698 L12.5419355,18.7673698 C12.5354539,18.696072 12.5235709,18.628015 12.5235709,18.5604981 C12.5235709,16.8331463 12.5295124,15.1052543 12.5203174,13.3779025 C12.5192498,13.1353818 12.5867667,13.0624636 12.8325281,13.0640577 C14.55988,13.0732663 16.2877719,13.0673248 18.0151238,13.0667847 L18.2236159,13.0667847 Z" id="Fill-6" fill="#1781F1"></path>
            <path d="M7.80673368,10.0211793 C7.13696624,9.33304726 6.46503826,8.6476159 5.80067217,7.95462266 C5.73909677,7.89088672 5.68994449,7.78448012 5.68940435,7.69805851 C5.6823826,6.48707577 5.68562341,5.27609302 5.68724381,4.06511028 C5.68778395,4.04026407 5.70236759,4.01595799 5.71587097,3.97328732 L7.972015,3.97328732 L7.972015,4.9088012 C7.972015,5.49700825 7.96337284,6.08467517 7.97903676,6.67180195 C7.98227757,6.79603301 8.04655364,6.94403001 8.13243511,7.03585296 C8.5623826,7.49550788 9.00853413,7.94003901 9.44550338,8.38619055 C8.90860915,8.9220045 8.38791898,9.4416144 7.80673368,10.0211793" id="Fill-8" fill="#1781F1"></path>
        </g>
    </g>
</svg>