<?xml version="1.0" encoding="UTF-8"?>
<svg width="26px" height="28px" viewBox="0 0 26 28" version="1.1" xmlns="http://www.w3.org/2000/svg" xmlns:xlink="http://www.w3.org/1999/xlink">
    <title>Group 15</title>
    <defs>
        <polygon id="path-1" points="0.093059666 0.57 5.71907851 0.57 5.71907851 6.20556185 0.093059666 6.20556185"></polygon>
        <polygon id="path-3" points="0 0.85457313 7.7978 0.85457313 7.7978 17.9994 0 17.9994"></polygon>
    </defs>
    <g id="UI" stroke="none" stroke-width="1" fill="none" fill-rule="evenodd">
        <g id="Group-15">
            <path d="M10.9364,27.4292 C10.3384,27.0272 10.1524,26.4712 10.1664,25.7512 C10.2044,23.6072 10.1804,21.4632 10.1804,19.2592 C9.9084,19.2452 9.6904,19.2352 9.4724,19.2252 C8.6544,19.1852 8.2144,18.7592 8.2104,17.9392 C8.1984,15.7912 8.1864,13.6392 8.2144,11.4912 C8.2324,9.9392 9.4984,8.5532 11.0504,8.4492 C12.2824,8.3672 13.5304,8.3672 14.7624,8.4492 C16.3144,8.5532 17.5844,9.9312 17.6064,11.4852 C17.6384,13.6352 17.6244,15.7852 17.6124,17.9352 C17.6064,18.7532 17.1624,19.1852 16.3524,19.2232 C16.1504,19.2332 15.9484,19.2252 15.6424,19.2252 L15.6424,21.1992 C15.6424,22.7172 15.6104,24.2332 15.6544,25.7492 C15.6764,26.4712 15.4784,27.0232 14.8864,27.4292 L10.9364,27.4292 Z" id="Fill-1" fill="#1781F1"></path>
            <g id="Group-5" transform="translate(10.000000, 0.429800)">
                <mask id="mask-2" fill="white">
                    <use xlink:href="#path-1"></use>
                </mask>
                <g id="Clip-4"></g>
                <path d="M3.6708,0.5698 C4.5968,1.0598 5.4168,1.6358 5.6528,2.7638 C5.9628,4.2298 5.1628,5.6238 3.7248,6.0778 C2.3488,6.5118 0.8688,5.8078 0.3088,4.4558 C-0.2452,3.1118 0.2988,1.5938 1.5848,0.8958 C1.7748,0.7898 1.9628,0.6798 2.1508,0.5698 L3.6708,0.5698 Z" id="Fill-3" fill="#1781F1" mask="url(#mask-2)"></path>
            </g>
            <path d="M19.746,27.4292 C19.228,27.0552 19.094,26.5472 19.104,25.9232 C19.134,23.9812 19.116,22.0412 19.116,20.0472 C18.708,20.0052 18.35,19.9692 17.762,19.9092 C18.916,18.9992 18.708,17.8552 18.712,16.7612 C18.72,15.2212 18.724,13.6812 18.71,12.1392 C18.704,11.5412 18.648,10.9412 18.614,10.2972 C20.166,10.2972 21.762,10.1832 23.334,10.3292 C24.754,10.4612 25.45,11.5532 25.822,12.8472 L25.822,19.2272 C25.426,19.9152 24.784,20.0852 23.982,19.9972 C23.982,21.9592 23.958,23.8472 23.996,25.7372 C24.008,26.4032 23.874,26.9652 23.392,27.4292 L19.746,27.4292 Z" id="Fill-6" fill="#1781F1"></path>
            <path d="M23.7548,5.6832 C23.7688,6.8952 22.7828,7.9192 21.5728,7.9512 C20.3908,7.9772 19.3328,6.9632 19.3008,5.7652 C19.2708,4.5352 20.3008,3.4672 21.5268,3.46318816 C22.7268,3.4592 23.7408,4.4692 23.7548,5.6832" id="Fill-8" fill="#1781F1"></path>
            <g id="Group-12" transform="translate(0.000000, 9.429800)">
                <mask id="mask-4" fill="white">
                    <use xlink:href="#path-3"></use>
                </mask>
                <g id="Clip-11"></g>
                <path d="M-0.0002,3.4174 C0.3958,2.7634 0.7198,2.0454 1.2138,1.4754 C1.4958,1.1494 2.0458,0.9134 2.4878,0.8934 C4.0698,0.8254 5.6558,0.8674 7.1258,0.8674 C7.1258,3.5854 7.0918,6.2574 7.1538,8.9254 C7.1658,9.4294 7.5538,9.9234 7.7978,10.4934 C7.5098,10.5254 7.1558,10.5654 6.7038,10.6174 L6.7038,13.8414 C6.7038,14.7494 6.6738,15.6594 6.7138,16.5674 C6.7418,17.1754 6.5518,17.6394 6.0758,17.9994 L2.4298,17.9994 C1.9438,17.5374 1.8098,16.9734 1.8278,16.3074 C1.8658,14.7674 1.8398,13.2254 1.8398,11.6854 L1.8398,10.5114 C0.9758,10.6954 0.3958,10.4474 -0.0002,9.7974 L-0.0002,3.4174 Z" id="Fill-10" fill="#1781F1" mask="url(#mask-4)"></path>
            </g>
            <path d="M6.51840297,5.7124 C6.5144,6.9064 5.4904,7.9384 4.2984,7.9484 C3.1024,7.9604 2.0824,6.9504 2.0644,5.7364 C2.0464,4.4984 3.0904,3.4404 4.3124,3.4624 C5.5104,3.4844 6.5204,4.5144 6.51840297,5.7124" id="Fill-13" fill="#1781F1"></path>
        </g>
    </g>
</svg>