<?xml version="1.0" encoding="UTF-8"?>
<svg width="29px" height="22px" viewBox="0 0 29 22" version="1.1" xmlns="http://www.w3.org/2000/svg" xmlns:xlink="http://www.w3.org/1999/xlink">
    <title>Group Copy 2</title>
    <defs>
        <polygon id="path-1" points="0.100342278 0.0652888182 28.4874391 0.0652888182 28.4874391 20.4027274 0.100342278 20.4027274"></polygon>
    </defs>
    <g id="UI" stroke="none" stroke-width="1" fill="none" fill-rule="evenodd">
        <g id="Group-8" transform="translate(0.000000, 0.000000)">
            <g id="Group-3" transform="translate(0.000000, 0.501511)">
                <mask id="mask-2" fill="white">
                    <use xlink:href="#path-1"></use>
                </mask>
                <g id="Clip-2"></g>
                <path d="M7.03172832,10.2595824 C7.04830799,14.5741985 10.3366931,18.0194305 14.413076,17.9935073 C18.3866302,17.9672901 21.6925974,14.4104097 21.6772004,10.1762711 C21.6622284,5.86108829 18.3663841,2.39035285 14.3123785,2.41869001 C10.2407908,2.44702717 7.01527495,5.92116307 7.03172832,10.2595824 M29.5523281,0.0661389331 C31.0627902,0.0667056763 31.6307453,0.66348628 31.6318108,2.24469985 C31.6344748,7.52391288 31.6371388,12.8031259 31.6371388,18.0829057 C31.6371388,19.7525312 31.0414786,20.4008854 29.4958523,20.4014522 C19.3461865,20.4031524 9.19652071,20.4031524 -0.95261229,20.4014522 C-2.4316397,20.4014522 -3.04594756,19.7564984 -3.04701314,18.205889 C-3.0496771,12.900039 -3.05020989,7.59418904 -3.04594756,2.28890582 C-3.04488198,0.724694547 -2.42791017,0.0672724195 -0.97125997,0.0667056763 C4.11582712,0.0644387034 9.2029142,0.0655721898 14.2905341,0.0655721898 C19.3776212,0.0655721898 24.465241,0.0650054466 29.5523281,0.0661389331 Z" id="Fill-1" fill="#1781F1" mask="url(#mask-2)"></path>
            </g>
            <path d="M11.0854774,10.7729951 L11.0817479,10.7729951 C11.0817479,11.5120282 11.0689609,12.2510614 11.0849446,12.9900945 C11.1174449,14.4811959 12.2741338,15.2633015 13.4942249,14.5690411 C14.8048904,13.823207 16.0926459,13.0263661 17.3585569,12.196654 C18.4481142,11.4819908 18.4475815,10.0588986 17.355893,9.34310193 C16.0686703,8.49922128 14.757472,7.69274569 13.4260276,6.93104281 C12.3391343,6.30989225 11.1408877,7.08066302 11.0908053,8.39777424 C11.060969,9.18838103 11.0854774,9.98125478 11.0854774,10.7729951 M14.3493542,4.19027263 C17.7421664,4.19140611 20.5014902,7.14413826 20.4861038,10.7565595 C20.4700555,14.3429106 17.7288466,17.2321675 14.3466902,17.2259434 C10.9517469,17.2202659 8.24143983,14.3514117 8.22538606,10.7463581 C8.20947238,7.10333274 10.9309681,4.18970588 14.3493542,4.19027263" id="Fill-4" fill="#1781F1"></path>
            <path d="M12.3940118,10.6974482 C12.393479,10.0122556 12.3940118,9.32706309 12.393479,8.6413038 C12.393479,8.07286036 12.5708983,7.82802729 13.1127466,8.16410602 C14.2459928,8.86800109 15.3872308,9.55659409 16.5204769,10.2610559 C16.991464,10.5540622 17.0436775,10.8504689 16.5146162,11.1672783 C15.3723126,11.8530376 14.2395993,12.5580662 13.1031564,13.2562938 C12.6412267,13.5402321 12.3993397,13.4047805 12.3956101,12.8329366 C12.3913478,12.1211071 12.3945445,11.4092777 12.3940118,10.6974482" id="Fill-6" fill="#1781F1"></path>
        </g>
    </g>
</svg>