<?xml version="1.0" encoding="UTF-8"?>
<svg width="21px" height="20px" viewBox="0 0 21 20" version="1.1" xmlns="http://www.w3.org/2000/svg" xmlns:xlink="http://www.w3.org/1999/xlink">
    <title></title>
    <g id="UI" stroke="none" stroke-width="1" fill="none" fill-rule="evenodd">
        <path d="M0.702,19.968 L4.686,15.984 L18.702,15.984 C19.246,15.984 19.71,15.784 20.094,15.384 C20.478,14.984 20.67,14.512 20.67,13.968 L20.67,13.968 L20.67,1.968 C20.67,1.424 20.478,0.96 20.094,0.576 C19.71,0.192 19.246,4.26325641e-14 18.702,4.26325641e-14 L18.702,4.26325641e-14 L2.67,4.26325641e-14 C2.126,4.26325641e-14 1.662,0.192 1.278,0.576 C0.894,0.96 0.702,1.424 0.702,1.968 L0.702,1.968 L0.702,19.968 Z M2.67,15.984 L2.67,1.968 L18.702,1.968 L18.702,13.968 L4.686,13.968 L2.67,15.984 Z" id="" fill="#FFFFFF" fill-rule="nonzero"></path>
    </g>
</svg>