<?xml version="1.0" encoding="UTF-8"?>
<svg width="21px" height="21px" viewBox="0 0 21 21" version="1.1" xmlns="http://www.w3.org/2000/svg" xmlns:xlink="http://www.w3.org/1999/xlink">
    <title></title>
    <g id="UI" stroke="none" stroke-width="1" fill="none" fill-rule="evenodd">
        <g id="Event-Live---reception" transform="translate(-1209.000000, -50.000000)" fill="#1781F1" fill-rule="nonzero">
            <g id="Group-17" transform="translate(1100.000000, 50.000000)">
                <path d="M109.356,20.584 L113.34,16.6 L127.356,16.6 C127.9,16.6 128.364,16.4 128.748,16 C129.132,15.6 129.324,15.128 129.324,14.584 L129.324,14.584 L129.324,2.584 C129.324,2.04 129.132,1.576 128.748,1.192 C128.364,0.808 127.9,0.616 127.356,0.616 L127.356,0.616 L111.324,0.616 C110.78,0.616 110.316,0.808 109.932,1.192 C109.548,1.576 109.356,2.04 109.356,2.584 L109.356,2.584 L109.356,20.584 Z M111.324,16.6 L111.324,2.584 L127.356,2.584 L127.356,14.584 L113.34,14.584 L111.324,16.6 Z" id=""></path>
            </g>
        </g>
    </g>
</svg>