<?xml version="1.0" encoding="UTF-8"?>
<svg width="18px" height="20px" viewBox="0 0 18 20" version="1.1" xmlns="http://www.w3.org/2000/svg" xmlns:xlink="http://www.w3.org/1999/xlink">
    <title></title>
    <g id="UI" stroke="none" stroke-width="1" fill="none" fill-rule="evenodd">
        <g id="Event-Live---expo-single" transform="translate(-1041.000000, -509.000000)" fill="#1781F1" fill-rule="nonzero">
            <path d="M1056.68,510.68 L1056.68,509 L1043.32,509 L1043.32,510.68 L1056.68,510.68 Z M1056.68,525.68 C1057.13333,525.68 1057.52,525.513333 1057.84,525.18 C1058.16,524.846667 1058.32,524.453333 1058.32,524 L1058.32,524 L1058.32,514 C1058.32,513.546667 1058.16,513.153333 1057.84,512.82 C1057.52,512.486667 1057.13333,512.32 1056.68,512.32 L1056.68,512.32 L1043.32,512.32 C1042.86667,512.32 1042.48,512.486667 1042.16,512.82 C1041.84,513.153333 1041.68,513.546667 1041.68,514 L1041.68,514 L1041.68,524 C1041.68,524.453333 1041.84,524.846667 1042.16,525.18 C1042.48,525.513333 1042.86667,525.68 1043.32,525.68 L1043.32,525.68 L1056.68,525.68 Z M1050,518.38 C1049.49333,518.38 1049.05333,518.193333 1048.68,517.82 C1048.30667,517.446667 1048.12,517.006667 1048.12,516.5 C1048.12,515.993333 1048.30667,515.553333 1048.68,515.18 C1049.05333,514.806667 1049.49333,514.62 1050,514.62 C1050.50667,514.62 1050.94667,514.806667 1051.32,515.18 C1051.69333,515.553333 1051.88,515.993333 1051.88,516.5 C1051.88,517.006667 1051.69333,517.446667 1051.32,517.82 C1050.94667,518.193333 1050.50667,518.38 1050,518.38 Z M1054.18,523.18 L1045.82,523.18 L1045.82,521.92 C1045.82,521.493333 1046.08,521.106667 1046.6,520.76 C1047.02667,520.466667 1047.59333,520.233333 1048.3,520.06 C1048.91333,519.9 1049.48,519.82 1050,519.82 C1050.52,519.82 1051.08667,519.9 1051.7,520.06 C1052.40667,520.233333 1052.97333,520.466667 1053.4,520.76 C1053.92,521.106667 1054.18,521.493333 1054.18,521.92 L1054.18,521.92 L1054.18,523.18 Z M1056.68,529 L1056.68,527.32 L1043.32,527.32 L1043.32,529 L1056.68,529 Z" id=""></path>
        </g>
    </g>
</svg>