<?xml version="1.0" encoding="UTF-8"?>
<svg width="18px" height="14px" viewBox="0 0 18 14" version="1.1" xmlns="http://www.w3.org/2000/svg" xmlns:xlink="http://www.w3.org/1999/xlink">
    <title></title>
    <g id="UI" stroke="none" stroke-width="1" fill="none" fill-rule="evenodd">
        <g id="Event-Live---expo-single" transform="translate(-968.000000, -396.000000)" fill="#1781F1" fill-rule="nonzero">
            <path d="M983.68,409.68 C984.133333,409.68 984.52,409.513333 984.84,409.18 C985.16,408.846667 985.32,408.453333 985.32,408 L985.32,408 L985.32,398 C985.32,397.546667 985.16,397.153333 984.84,396.82 C984.52,396.486667 984.133333,396.32 983.68,396.32 L983.68,396.32 L970.32,396.32 C969.866667,396.32 969.48,396.486667 969.16,396.82 C968.84,397.153333 968.68,397.546667 968.68,398 L968.68,398 L968.68,408 C968.68,408.453333 968.84,408.846667 969.16,409.18 C969.48,409.513333 969.866667,409.68 970.32,409.68 L970.32,409.68 L983.68,409.68 Z M977,403.82 L970.32,399.68 L970.32,398 L977,402.18 L983.68,398 L983.68,399.68 L977,403.82 Z" id=""></path>
        </g>
    </g>
</svg>