<?xml version="1.0" encoding="UTF-8"?>
<svg width="20px" height="21px" viewBox="0 0 20 21" version="1.1" xmlns="http://www.w3.org/2000/svg" xmlns:xlink="http://www.w3.org/1999/xlink">
    <title></title>
    <g id="UI" stroke="none" stroke-width="1" fill="none" fill-rule="evenodd">
        <g id="Event-Live---reception" transform="translate(-1100.000000, -50.000000)" fill="#1781F1" fill-rule="nonzero">
            <g id="Group-17" transform="translate(1100.000000, 50.000000)">
                <path d="M10,20.584 C11.824,20.584 13.512,20.128 15.064,19.216 C16.568,18.352 17.752,17.168 18.616,15.664 C19.528,14.112 19.984,12.424 19.984,10.6 C19.984,8.776 19.528,7.088 18.616,5.536 C17.752,4.032 16.568,2.848 15.064,1.984 C13.512,1.072 11.824,0.616 10,0.616 C8.192,0.616 6.512,1.072 4.96,1.984 C3.456,2.864 2.264,4.056 1.384,5.56 C0.472,7.112 0.016,8.792 0.016,10.6 C0.016,12.408 0.472,14.088 1.384,15.64 C2.248,17.144 3.432,18.336 4.936,19.216 C6.488,20.128 8.176,20.584 10,20.584 Z M10,18.616 C8.56,18.616 7.216,18.248 5.968,17.512 C4.752,16.808 3.792,15.848 3.088,14.632 C2.352,13.384 1.984,12.04 1.984,10.6 C1.984,9.16 2.352,7.816 3.088,6.568 C3.792,5.352 4.752,4.392 5.968,3.688 C7.216,2.952 8.56,2.584 10,2.584 C11.44,2.584 12.784,2.952 14.032,3.688 C15.248,4.392 16.208,5.352 16.912,6.568 C17.648,7.816 18.016,9.16 18.016,10.6 C18.016,12.04 17.648,13.384 16.912,14.632 C16.208,15.848 15.248,16.808 14.032,17.512 C12.784,18.248 11.44,18.616 10,18.616 Z M10.984,13.6 C10.984,13.104 11.144,12.64 11.464,12.208 C11.64,11.968 11.976,11.628 12.472,11.188 C12.968,10.748 13.312,10.384 13.504,10.096 C13.824,9.632 13.984,9.128 13.984,8.584 C13.984,7.864 13.804,7.2 13.444,6.592 C13.084,5.984 12.6,5.5 11.992,5.14 C11.384,4.78 10.72,4.6 10,4.6 C9.28,4.6 8.616,4.78 8.008,5.14 C7.4,5.5 6.916,5.984 6.556,6.592 C6.196,7.2 6.016,7.864 6.016,8.584 L6.016,8.584 L7.984,8.584 C7.984,8.04 8.184,7.576 8.584,7.192 C8.984,6.808 9.456,6.616 10,6.616 C10.544,6.616 11.016,6.808 11.416,7.192 C11.816,7.576 12.016,8.04 12.016,8.584 C12.016,8.952 11.912,9.28 11.704,9.568 C11.56,9.776 11.312,10.016 10.96,10.288 C10.496,10.656 10.2,10.896 10.072,11.008 C9.736,11.328 9.488,11.664 9.328,12.016 C9.12,12.48 9.016,13.008 9.016,13.6 L9.016,13.6 L10.984,13.6 Z M10.984,16.6 L10.984,14.584 L9.016,14.584 L9.016,16.6 L10.984,16.6 Z" id=""></path>
            </g>
        </g>
    </g>
</svg>