<?xml version="1.0" encoding="UTF-8"?>
<svg width="22px" height="22px" viewBox="0 0 22 22" version="1.1" xmlns="http://www.w3.org/2000/svg" xmlns:xlink="http://www.w3.org/1999/xlink">
    <title></title>
    <g id="UI" stroke="none" stroke-width="1" fill="none" fill-rule="evenodd">
        <path d="M11,21.32 C12.8853846,21.32 14.6301923,20.8486538 16.2344231,19.9059615 C17.7890385,19.0128846 19.0128846,17.7890385 19.9059615,16.2344231 C20.8486538,14.6301923 21.32,12.8853846 21.32,11 C21.32,9.11461538 20.8486538,7.36980769 19.9059615,5.76557692 C19.0128846,4.21096154 17.7890385,2.98711538 16.2344231,2.09403846 C14.6301923,1.15134615 12.8853846,0.68 11,0.68 C9.13115385,0.68 7.39461538,1.15134615 5.79038462,2.09403846 C4.23576923,3.00365385 3.00365385,4.23576923 2.09403846,5.79038462 C1.15134615,7.39461538 0.68,9.13115385 0.68,11 C0.68,12.8688462 1.15134615,14.6053846 2.09403846,16.2096154 C2.98711538,17.7642308 4.21096154,18.9963462 5.76557692,19.9059615 C7.36980769,20.8486538 9.11461538,21.32 11,21.32 Z M11,19.2857692 C9.51153846,19.2857692 8.12230769,18.9053846 6.83230769,18.1446154 C5.57538462,17.4169231 4.58307692,16.4246154 3.85538462,15.1676923 C3.09461538,13.8776923 2.71423077,12.4884615 2.71423077,11 C2.71423077,9.51153846 3.09461538,8.12230769 3.85538462,6.83230769 C4.58307692,5.57538462 5.57538462,4.58307692 6.83230769,3.85538462 C8.12230769,3.09461538 9.51153846,2.71423077 11,2.71423077 C12.4884615,2.71423077 13.8776923,3.09461538 15.1676923,3.85538462 C16.4246154,4.58307692 17.4169231,5.57538462 18.1446154,6.83230769 C18.9053846,8.12230769 19.2857692,9.51153846 19.2857692,11 C19.2857692,12.4884615 18.9053846,13.8776923 18.1446154,15.1676923 C17.4169231,16.4246154 16.4246154,17.4169231 15.1676923,18.1446154 C13.8776923,18.9053846 12.4884615,19.2857692 11,19.2857692 Z M12.0171154,7.89903846 L12.0171154,5.81519231 L9.98288462,5.81519231 L9.98288462,7.89903846 L12.0171154,7.89903846 Z M12.0171154,16.1848077 L12.0171154,9.98288462 L9.98288462,9.98288462 L9.98288462,16.1848077 L12.0171154,16.1848077 Z" id="" fill="#1781F1" fill-rule="nonzero"></path>
    </g>
</svg>