<?xml version="1.0" encoding="UTF-8"?>
<svg width="16px" height="16px" viewBox="0 0 16 16" version="1.1" xmlns="http://www.w3.org/2000/svg" xmlns:xlink="http://www.w3.org/1999/xlink">
    <title>Group 5</title>
    <g id="Symbols" stroke="none" stroke-width="1" fill="none" fill-rule="evenodd">
        <g id="Group-5">
            <rect id="Rectangle-Copy" x="0" y="0" width="16" height="16"></rect>
            <path d="M4.23214433,5.2901813 C5.00223453,5.2901813 5.48437796,4.78125212 5.47768153,4.14509065 C5.47098509,3.49553631 5.00223453,3 4.2455372,3 C3.49553631,3 3,3.49553631 3,4.14509065 C3,4.78125212 3.475447,5.2901813 4.21875145,5.2901813 L4.23214433,5.2901813 Z M8.75893544,12.8303689 L8.75893544,9.12723945 C8.75893544,8.92634635 8.77902475,8.73214969 8.83259624,8.58482809 C8.99331072,8.18973833 9.35491829,7.7812557 9.96429402,7.7812557 C10.76117,7.7812557 11.0825989,8.39063143 11.0825989,9.28125749 L11.0825989,12.8303689 L13.2857265,12.8303689 L13.2857265,9.0267929 C13.2857265,6.99107619 12.2009038,6.0401822 10.7477771,6.0401822 C9.62592702,6.0401822 9.09725609,6.62742956 8.79887826,7.07615214 L8.758,7.13865394 L8.75893544,6.19420024 L6.55580781,6.19420024 C6.55771845,6.2477258 6.58160149,7.03968736 6.55580781,12.8303689 L8.75893544,12.8303689 Z M5.33705636,12.8303689 L5.33705636,6.19420024 L3.12723229,6.19420024 L3.12723229,12.8303689 L5.33705636,12.8303689 Z" id="" fill="#1781F1" fill-rule="nonzero"></path>
        </g>
    </g>
</svg>