<?xml version="1.0" encoding="UTF-8"?>
<svg width="19px" height="19px" viewBox="0 0 19 19" version="1.1" xmlns="http://www.w3.org/2000/svg" xmlns:xlink="http://www.w3.org/1999/xlink">
    <title></title>
    <g id="UI" stroke="none" stroke-width="1" fill="none" fill-rule="evenodd">
        <g id="Event-Live---reception" transform="translate(-1265.000000, -51.000000)" fill="#1781F1" fill-rule="nonzero">
            <g id="Group-17" transform="translate(1100.000000, 50.000000)">
                <path d="M180.994,19.6 C181.538,19.6 182.01,19.4 182.41,19 C182.81,18.6 183.01,18.128 183.01,17.584 L183.01,17.584 L183.01,3.616 C183.01,3.072 182.81,2.6 182.41,2.2 C182.01,1.8 181.538,1.6 180.994,1.6 L180.994,1.6 L167.026,1.6 C166.466,1.6 165.99,1.8 165.598,2.2 C165.206,2.6 165.01,3.072 165.01,3.616 L165.01,3.616 L165.01,7.6 L167.026,7.6 L167.026,3.616 L180.994,3.616 L180.994,17.584 L167.026,17.584 L167.026,13.6 L165.01,13.6 L165.01,17.584 C165.01,18.128 165.206,18.6 165.598,19 C165.99,19.4 166.466,19.6 167.026,19.6 L167.026,19.6 L180.994,19.6 Z M173.506,15.616 L178.522,10.6 L173.506,5.584 L172.09,7 L174.658,9.616 L165.01,9.616 L165.01,11.584 L174.658,11.584 L172.09,14.2 L173.506,15.616 Z" id=""></path>
            </g>
        </g>
    </g>
</svg>