<?xml version="1.0" encoding="UTF-8"?>
<svg width="15px" height="15px" viewBox="0 0 15 15" version="1.1" xmlns="http://www.w3.org/2000/svg" xmlns:xlink="http://www.w3.org/1999/xlink">
    <title></title>
    <g id="UI" stroke="none" stroke-width="1" fill="none" fill-rule="evenodd">
        <path d="M13.32,15 C13.7733333,15 14.1666667,14.8333333 14.5,14.5 C14.8333333,14.1666667 15,13.7733333 15,13.32 L15,13.32 L15,1.68 C15,1.22666667 14.8333333,0.833333333 14.5,0.5 C14.1666667,0.166666667 13.7733333,0 13.32,0 L13.32,0 L1.68,0 C1.21333333,0 0.816666667,0.166666667 0.49,0.5 C0.163333333,0.833333333 0,1.22666667 0,1.68 L0,1.68 L0,5 L1.68,5 L1.68,1.68 L13.32,1.68 L13.32,13.32 L1.68,13.32 L1.68,10 L0,10 L0,13.32 C0,13.7733333 0.163333333,14.1666667 0.49,14.5 C0.816666667,14.8333333 1.21333333,15 1.68,15 L1.68,15 L13.32,15 Z M7.08,11.68 L11.26,7.5 L7.08,3.32 L5.9,4.5 L8.04,6.68 L0,6.68 L0,8.32 L8.04,8.32 L5.9,10.5 L7.08,11.68 Z" id="" fill="#1781F1" fill-rule="nonzero"></path>
    </g>
</svg>