<?xml version="1.0" encoding="UTF-8"?>
<svg width="27px" height="26px" viewBox="0 0 27 26" version="1.1" xmlns="http://www.w3.org/2000/svg" xmlns:xlink="http://www.w3.org/1999/xlink">
    <title>Group Copy 4</title>
    <defs>
        <polygon id="path-1" points="0.154864394 0.00438969087 8.6555625 0.00438969087 8.6555625 6.92343159 0.154864394 6.92343159"></polygon>
    </defs>
    <g id="UI" stroke="none" stroke-width="1" fill="none" fill-rule="evenodd">
        <g id="Group-14">
            <path d="M4.0625e-05,11.68518 C0.088603125,11.3714467 0.194634375,11.0681133 0.391259375,10.8072467 C1.15744688,9.78891333 2.47125938,9.66064667 3.37679063,10.5559133 C3.71885313,10.89478 3.91872813,11.3142467 3.98982188,11.8030467 C4.00282188,11.89188 4.03654063,11.9131133 4.11372813,11.9157133 C5.01966563,11.9460467 5.92235313,12.0396467 6.82707188,12.09988 C7.38444688,12.1367133 7.94182188,12.17788 8.49919688,12.2199133 C8.82744688,12.2450467 9.15610313,12.27538 9.48475938,12.30398 C9.57900938,12.3122133 9.62857188,12.32608 9.60500938,12.4673467 C9.56397813,12.7104467 9.56113438,12.9622133 9.55382188,13.2109467 C9.55097813,13.3084467 9.52254063,13.33748 9.43438438,13.33488 C8.92129063,13.31928 8.41022813,13.26598 7.89835313,13.2313133 C7.55629063,13.2083467 7.21382188,13.1793133 6.87094688,13.1533133 C6.27254063,13.1078133 5.67494688,13.0614467 5.07654063,13.0168133 C4.71538438,12.9899467 4.35463438,12.9661133 3.99388438,12.9405467 C3.90938438,12.93448 3.84763438,12.9548467 3.80579063,13.0484467 C3.51450938,13.7062467 3.01604063,14.0780467 2.36116563,14.2388133 C1.33619688,14.4897133 0.220228125,13.6711467 0.023196875,12.5878133 C0.019946875,12.5700467 0.008165625,12.55358 4.0625e-05,12.53668 L4.0625e-05,11.68518 Z" id="Fill-1" fill="#8F8E9D"></path>
            <path d="M11.3952719,0 C11.5744281,0.0528666667 11.7600844,0.0775666667 11.9343656,0.153833333 C12.4710219,0.388266667 12.8431469,0.792566667 13.0686156,1.36196667 C13.4192094,2.24726667 13.1352406,3.31456667 12.4145531,3.8753 C12.3223344,3.9468 12.2374281,4.02956667 12.1289594,4.07376667 C12.0623344,4.10106667 12.0631469,4.14916667 12.0769594,4.21546667 C12.1846156,4.7346 12.2886156,5.25416667 12.3942406,5.77373333 C12.5437406,6.5078 12.6928344,7.24186667 12.8435531,7.97593333 C12.8654906,8.0808 12.8593969,8.1458 12.7375219,8.17483333 C12.5055531,8.2303 12.2772406,8.3018 12.0501469,8.37676667 C11.9583344,8.4071 11.9193344,8.37026667 11.9022719,8.28706667 C11.7970531,7.7727 11.6934594,7.2579 11.5898656,6.7431 C11.5212094,6.39946667 11.4545844,6.05583333 11.3838969,5.71263333 C11.2973656,5.29403333 11.2051469,4.87673333 11.1198344,4.4577 C11.0995219,4.3589 11.0617406,4.31946667 10.9601781,4.30863333 C9.98274063,4.20376667 9.20558438,3.2773 9.18567813,2.23426667 C9.16699063,1.2532 9.61183438,0.598 10.4064594,0.176366667 C10.5661156,0.0914333333 10.7428344,0.0476666667 10.9219906,0.0277333333 C10.9528656,0.0242666667 10.9873969,0.0333666667 11.0101469,0 L11.3952719,0 Z" id="Fill-3" fill="#8F8E9D"></path>
            <path d="M14.2675813,8.39709 C12.0023313,8.36935667 10.123425,10.3973567 10.1303123,12.82359 C10.1376438,15.2710567 11.9527688,17.26179 14.2570188,17.2821567 C16.6270813,17.30339 18.4487063,15.24419 18.4690188,12.8799233 C18.4909563,10.3466567 16.50155,8.31649 14.2675813,8.39709" id="Fill-5" fill="#8F8E9D"></path>
            <g id="Group-9" transform="translate(17.468750, 3.014137)">
                <mask id="mask-2" fill="white">
                    <use xlink:href="#path-1"></use>
                </mask>
                <g id="Clip-8"></g>
                <path d="M8.65308438,2.1008 C8.65714688,2.71743333 8.47352188,3.22616667 8.09327188,3.6348 C7.63705313,4.1262 7.07642813,4.34286667 6.42236563,4.2757 C6.02058438,4.2341 5.67405313,4.0625 5.35799063,3.80813333 C5.31167813,3.7713 5.28486563,3.77606667 5.23936563,3.80813333 C4.44392813,4.368 3.64727188,4.92613333 2.85020938,5.4834 C2.17989688,5.95183333 1.50795938,6.41766667 0.839678125,6.88956667 C0.753553125,6.95023333 0.714146875,6.92596667 0.667834375,6.84406667 C0.527271875,6.59836667 0.374928125,6.36176667 0.178303125,6.162 C0.131990625,6.1152 0.162865625,6.10133333 0.197396875,6.07793333 C0.903459375,5.5874 1.61033438,5.0973 2.31517813,4.60416667 C2.92374063,4.17863333 3.53067813,3.74876667 4.13924063,3.32193333 C4.29970938,3.20926667 4.46058438,3.09616667 4.62674063,2.99303333 C4.71449063,2.93886667 4.73155313,2.8756 4.70758438,2.77593333 C4.48374063,1.8525 4.68361563,1.0608 5.38033438,0.4446 C5.69314688,0.168566667 6.05592813,0.0121333333 6.47680313,0.0052 C6.89158438,-0.00173333333 7.28767813,0.0316333333 7.65370938,0.2704 C8.18508438,0.616633333 8.51130313,1.1076 8.62586563,1.7589 C8.64739688,1.88413333 8.66202188,2.0098 8.65308438,2.1008" id="Fill-7" fill="#8F8E9D" mask="url(#mask-2)"></path>
            </g>
            <path d="M25.703275,19.22726 C25.6679313,19.64326 25.5306188,20.1012933 25.2182125,20.49606 C24.812775,21.00826 24.28465,21.2764933 23.6769,21.2722117 C22.5861188,21.2634933 21.7748375,20.4085267 21.6594625,19.3048267 C21.634275,19.0656267 21.6663688,18.8376933 21.7037438,18.60846 C21.7224313,18.4936267 21.6923688,18.4416267 21.6042125,18.3883267 C20.7380875,17.86616 19.8739938,17.3413933 19.0099,16.8161933 C18.7194313,16.6393933 18.4318063,16.4573933 18.1401188,16.28276 C18.0674,16.2389933 18.05765,16.21256 18.108025,16.13066 C18.2437125,15.9105267 18.36965,15.6825933 18.4878688,15.4511933 C18.5378375,15.3528267 18.5744,15.34546 18.663775,15.40006 C19.3714625,15.8325267 20.0824,16.25936 20.7933375,16.6866267 C21.2519938,16.9622267 21.7130875,17.2347933 22.1717438,17.51126 C22.2416188,17.5532933 22.2915875,17.56976 22.3626813,17.4978267 C22.8176813,17.04196 23.3657125,16.8894267 23.9734625,16.9799933 C24.9354625,17.1229933 25.6919,18.0321267 25.703275,19.22726" id="Fill-10" fill="#8F8E9D"></path>
            <path d="M8.53445938,23.8488033 C8.47027188,22.7884367 9.33517813,21.7692367 10.2979906,21.6899367 C10.3564906,21.6847367 10.4178344,21.65917 10.4734906,21.6687033 C10.6258344,21.6947033 10.6762094,21.5985033 10.7091156,21.47067 C10.9301156,20.60877 11.1494906,19.74687 11.3733344,18.8858367 C11.5017094,18.3918367 11.6390219,17.9000033 11.7661781,17.4060033 C11.7913656,17.30807 11.8181781,17.2799033 11.9148656,17.31977 C12.1500844,17.41597 12.3885531,17.5035033 12.6290531,17.58367 C12.7151781,17.61227 12.7216781,17.65257 12.7005531,17.7327367 C12.3568656,19.0453033 12.0119594,20.35657 11.6743656,21.67087 C11.5809281,22.0366033 11.5687406,21.9343367 11.8307719,22.1718033 C12.2102094,22.5154367 12.4466469,22.9544033 12.5250531,23.4839367 C12.6205219,24.12397 12.4819906,24.7107033 12.0936156,25.1982033 C11.6434906,25.7628367 11.0495531,26.03757 10.3475531,25.9708367 C9.72964688,25.9123367 9.23117813,25.59947 8.87570938,25.0591033 C8.63439688,24.6925033 8.49220938,24.2808367 8.53445938,23.8488033" id="Fill-12" fill="#8F8E9D"></path>
        </g>
    </g>
</svg>