<?xml version="1.0" encoding="UTF-8"?>
<svg width="17px" height="20px" viewBox="0 0 17 20" version="1.1" xmlns="http://www.w3.org/2000/svg" xmlns:xlink="http://www.w3.org/1999/xlink">
    <title></title>
    <g id="UI" stroke="none" stroke-width="1" fill="none" fill-rule="evenodd">
        <path d="M16.032,16.968 L16.032,15.984 L14.016,13.968 L14.016,9 C14.016,7.448 13.624,6.104 12.84,4.968 C12.04,3.784 10.936,3.016 9.528,2.664 L9.528,2.664 L9.528,1.968 C9.528,1.552 9.38,1.196 9.084,0.9 C8.788,0.604 8.432,0.456 8.016,0.456 C7.6,0.456 7.248,0.604 6.96,0.9 C6.672,1.196 6.528,1.552 6.528,1.968 L6.528,1.968 L6.528,2.664 C5.104,3.016 3.992,3.776 3.192,4.944 C2.408,6.08 2.016,7.432 2.016,9 L2.016,9 L2.016,13.968 L0,15.984 L0,16.968 L16.032,16.968 Z M12,15 L4.032,15 L4.032,9 C4.032,8.168 4.192,7.408 4.512,6.72 C4.832,6.032 5.288,5.496 5.88,5.112 C6.488,4.696 7.2,4.488 8.016,4.488 C8.832,4.488 9.544,4.696 10.152,5.112 C10.744,5.496 11.2,6.032 11.52,6.72 C11.84,7.408 12,8.168 12,9 L12,9 L12,15 Z M8.016,19.968 C8.56,19.968 9.032,19.776 9.432,19.392 C9.832,19.008 10.032,18.544 10.032,18 L10.032,18 L6,18 C6,18.544 6.2,19.008 6.6,19.392 C7,19.776 7.472,19.968 8.016,19.968 Z" id="" fill="#FFFFFF" fill-rule="nonzero"></path>
    </g>
</svg>