<?xml version="1.0" encoding="UTF-8"?>
<svg width="17px" height="20px" viewBox="0 0 17 20" version="1.1" xmlns="http://www.w3.org/2000/svg" xmlns:xlink="http://www.w3.org/1999/xlink">
    <title></title>
    <g id="UI" stroke="none" stroke-width="1" fill="none" fill-rule="evenodd">
        <g id="Event-Live---reception" transform="translate(-1156.000000, -51.000000)" fill="#1781F1" fill-rule="nonzero">
            <g id="Group-17" transform="translate(1100.000000, 50.000000)">
                <path d="M72.686,17.584 L72.686,16.6 L70.67,14.584 L70.67,9.616 C70.67,8.064 70.278,6.72 69.494,5.584 C68.694,4.4 67.59,3.632 66.182,3.28 L66.182,3.28 L66.182,2.584 C66.182,2.168 66.034,1.812 65.738,1.516 C65.442,1.22 65.086,1.072 64.67,1.072 C64.254,1.072 63.902,1.22 63.614,1.516 C63.326,1.812 63.182,2.168 63.182,2.584 L63.182,2.584 L63.182,3.28 C61.758,3.632 60.646,4.392 59.846,5.56 C59.062,6.696 58.67,8.048 58.67,9.616 L58.67,9.616 L58.67,14.584 L56.654,16.6 L56.654,17.584 L72.686,17.584 Z M68.654,15.616 L60.686,15.616 L60.686,9.616 C60.686,8.784 60.846,8.024 61.166,7.336 C61.486,6.648 61.942,6.112 62.534,5.728 C63.142,5.312 63.854,5.104 64.67,5.104 C65.486,5.104 66.198,5.312 66.806,5.728 C67.398,6.112 67.854,6.648 68.174,7.336 C68.494,8.024 68.654,8.784 68.654,9.616 L68.654,9.616 L68.654,15.616 Z M64.67,20.584 C65.214,20.584 65.686,20.392 66.086,20.008 C66.486,19.624 66.686,19.16 66.686,18.616 L66.686,18.616 L62.654,18.616 C62.654,19.16 62.854,19.624 63.254,20.008 C63.654,20.392 64.126,20.584 64.67,20.584 Z" id=""></path>
            </g>
        </g>
    </g>
</svg>