<?xml version="1.0" encoding="UTF-8"?>
<svg width="16px" height="16px" viewBox="0 0 16 16" version="1.1" xmlns="http://www.w3.org/2000/svg" xmlns:xlink="http://www.w3.org/1999/xlink">
    <title>юбн</title>
    <g id="UI" stroke="none" stroke-width="1" fill="none" fill-rule="evenodd">
        <g id="Event-Live---expo-single" transform="translate(-969.000000, -358.000000)" fill="#1781F1" fill-rule="nonzero">
            <path d="M983.68,373.5 C983.906667,373.5 984.1,373.42 984.26,373.26 C984.42,373.1 984.5,372.906667 984.5,372.68 L984.5,372.68 L984.5,369.74 C984.5,369.513333 984.42,369.32 984.26,369.16 C984.1,369 983.906667,368.92 983.68,368.92 C982.586667,368.92 981.6,368.766667 980.72,368.46 C980.573333,368.393333 980.42,368.38 980.26,368.42 C980.1,368.46 979.966667,368.54 979.86,368.66 L979.86,368.66 L978.02,370.5 C976.846667,369.886667 975.786667,369.106667 974.84,368.16 C973.893333,367.213333 973.113333,366.153333 972.5,364.98 L972.5,364.98 L974.34,363.14 C974.46,363.033333 974.533333,362.9 974.56,362.74 C974.586667,362.58 974.58,362.426667 974.54,362.28 C974.233333,361.4 974.08,360.413333 974.08,359.32 C974.08,359.093333 974,358.9 973.84,358.74 C973.68,358.58 973.486667,358.5 973.26,358.5 L973.26,358.5 L970.32,358.5 C970.093333,358.5 969.9,358.58 969.74,358.74 C969.58,358.9 969.5,359.093333 969.5,359.32 C969.5,361.24 969.873333,363.08 970.62,364.84 C971.34,366.533333 972.353333,368.033333 973.66,369.34 C974.966667,370.646667 976.466667,371.66 978.16,372.38 C979.92,373.126667 981.76,373.5 983.68,373.5 Z" id="юбн"></path>
        </g>
    </g>
</svg>