<?xml version="1.0" encoding="utf-8"?>
<!-- Generator: Adobe Illustrator 21.0.1, SVG Export Plug-In . SVG Version: 6.00 Build 0)  -->
<svg version="1.1" id="Layer_1" xmlns="http://www.w3.org/2000/svg" xmlns:xlink="http://www.w3.org/1999/xlink" x="0px" y="0px"
	 viewBox="0 0 562 208" style="enable-background:new 0 0 562 208;" xml:space="preserve">
<style type="text/css">
	.st0{fill:#F6F4F4;}
	.st1{fill:#0B0A2C;}
	.st2{fill-rule:evenodd;clip-rule:evenodd;fill:#2F7899;}
	.st3{fill-rule:evenodd;clip-rule:evenodd;fill:#ED7557;}
	.st4{fill-rule:evenodd;clip-rule:evenodd;fill:#F08165;}
	.st5{fill-rule:evenodd;clip-rule:evenodd;fill:#D96346;}
	.st6{fill-rule:evenodd;clip-rule:evenodd;fill:#FF9100;}
	.st7{fill-rule:evenodd;clip-rule:evenodd;fill:#524949;}
	.st8{fill-rule:evenodd;clip-rule:evenodd;fill:#2E2828;}
	.st9{fill-rule:evenodd;clip-rule:evenodd;fill:#262020;}
	.st10{fill-rule:evenodd;clip-rule:evenodd;fill:#473F3F;}
</style>
<title>Group 16</title>
<g id="UI">
	<g id="Event-Live---reception" transform="translate(-711.000000, -410.000000)">
		<g id="Group-16" transform="translate(720.000000, 419.000000)">
			<path id="Rectangle_3_" class="st0" d="M61.9,51.5h420.2v98.9c0,19.2-15.6,34.8-34.8,34.8H96.7c-19.2,0-34.8-15.6-34.8-34.8
				L61.9,51.5L61.9,51.5z"/>
			<rect id="Rectangle_2_" x="109" y="185.2" class="st1" width="329.1" height="13.1"/>
		</g>
	</g>
</g>
<g>
	<path class="st2" d="M406.9,56.1c-0.4-7-0.6-10.5-0.6-10.5c0.2-0.2-0.3-1.3-0.1-1.4c3.4-1.6,4.7-3.2,4.7-3.2
		c-3-3.2-4.5-4.7-4.5-4.7c-42.3-1.1-64.1-1.4-65.3-0.9c-8.4,8.4-12.7,12.5-12.7,12.5c-0.9,5.3-1.4,7.9-1.4,7.9
		C379.8,56,406.4,56.1,406.9,56.1z"/>
	<path class="st3" d="M389.4,51.3c1.5-2.6,2.3-4.4,2.3-5.4c2.2-0.5,3.8-0.7,4.8-0.6c3.7,0.3,6.3,0.8,7.8,1.5
		C396,51.7,391.1,53.2,389.4,51.3z"/>
	<path class="st4" d="M384.8,56.1c17.6,2.5,27.7,2.2,30.3-1c-0.5-2.7-2.1-6.1-8.7-9.5c-10.9,3.8-12.8,2.4-14.6,3.1
		C389.6,51.5,384.8,56.1,384.8,56.1z"/>
	<path class="st5" d="M384.5,58.1c4.2-4.4,6.9-7.3,8-8.6c1.1,1,2.1,1.5,2.9,1.5c1,1.7,2,2.5,2.9,2.5c1.1,1.3,2.2,2.1,3.3,2.4
		C393.9,58.9,388.2,59.7,384.5,58.1z"/>
	<path class="st5" d="M327.3,51.9c0.6,2,0.9,2.9,0.9,2.9c2.5,0.9,6.1,0.1,10.9-2.3c0.1-0.6,0.1-2.1,0.1-4.7
		c-1.1,0.7-1.8,1.9-3.9,1.8c-1.2-0.1-1.6,1.9-4,1.5C330.3,51,329.4,52.3,327.3,51.9z"/>
	<path class="st5" d="M345.3,55.8c-0.7-2.8-1-4.2-1-4.2s-0.9,0.1-2.6,0.3c0.4,2.8,0.6,4.3,0.6,4.3C344.3,55.9,345.3,55.8,345.3,55.8
		z"/>
	<path class="st6" d="M330.9,52.6c0.2,0.6,0.3,0.8,0.3,0.8c-0.5,0.8-1.6,1-3.2,0.6c0,0-0.1-0.3-0.3-0.9
		C329.2,53.5,330.2,53.3,330.9,52.6z"/>
	<path class="st7" d="M327.7,0.1l86.7-0.3c1.6,0,3,1.3,3,3l0,50.9c0,1.7-1.3,3-3,3l-86.7,0.3c-1.6,0-3-1.3-3-3l0-50.9
		C324.7,1.4,326.1,0.1,327.7,0.1z"/>
	<path class="st8" d="M327.2,1.4l87.7-0.3c0.7,0,1.2,0.5,1.2,1.2l0,51.8c0,0.7-0.5,1.2-1.2,1.2l-87.7,0.3c-0.7,0-1.2-0.5-1.2-1.2
		l0-51.8C326,2,326.5,1.4,327.2,1.4z"/>
	<path class="st9" d="M351.2,4.5c-0.1,0-0.2-0.1-0.2-0.2c0-0.1,0.1-0.2,0.2-0.2c11,1,18.6,2.9,22.8,5.6c2.3,1.4,3.6,3.1,4,4.9
		c0.4,1.9-0.2,3.9-1.7,6.2c-2.7,4.1-8.6,8.9-17.6,14.2c-0.1,0.1-0.2,0-0.3-0.1c-0.1-0.1,0-0.2,0.1-0.3c8.9-5.3,14.8-10,17.5-14.1
		c1.4-2.2,2-4.1,1.6-5.9c-0.4-1.7-1.6-3.3-3.8-4.7C369.7,7.4,362.1,5.5,351.2,4.5z"/>
	<path class="st9" d="M339.8,46.9c11.8,2.4,8.2,4.7-10.9,6.9c32.7-0.5,49.1-0.7,49.1-0.7c-12.8-2-18.4-10-3.1-23
		c7-5.9,23.9-12.5,36.7-20.7c9.8-11.2-59-6.2-68.9-7C378.3,3.4,405.7,14.6,339.8,46.9z"/>
	<path class="st9" d="M328.7,2.6l5.8,0c0.7,0,2,1.1,1.3,1.4c-8.4,3.9-6.7,5.8-7.1,10.6c-0.1,0.8-1.3-2.1-1.3-2.9l0-7.7
		c0-0.4,0.4,1.4,1.6,0.3C330.4,2.9,328.4,2.6,328.7,2.6z"/>
	<path class="st9" d="M413.7,54.2l-5.8,0c-0.7,0-2-1.1-1.3-1.4c8.4-3.9,6.7-5.8,7.1-10.6c0.1-0.8,1.3,2.1,1.3,2.9l0,7.7
		C415,53.5,414.4,54.2,413.7,54.2z"/>
	<path class="st10" d="M325.1,57l91.3-0.3c0.3,0,0.6,0.3,0.6,0.6l0,2.5c0,0.3-0.3,0.6-0.6,0.6l-91.3,0.3c-0.3,0-0.6-0.3-0.6-0.6
		l0-2.5C324.5,57.3,324.8,57,325.1,57z"/>
	<path class="st8" d="M325.1,57.4l91.4-0.3c0,0,0.1,0,0.1,0.1l0,2.6c0,0,0,0.1-0.1,0.1l-91.4,0.3c0,0-0.1,0-0.1-0.1L325.1,57.4
		C325,57.4,325,57.4,325.1,57.4z"/>
	<path class="st9" d="M382.2,52.9c0.3,0.1,0.4,0.4,0.3,0.7c-0.1,0.3-0.4,0.4-0.7,0.3c-2.2-0.9-4.1-1.8-5.7-2.6
		c-1.6-0.9-3-1.8-4.2-2.7c-4.1-3.3-3.9-6.9-1.5-10.5c4-6,14.2-11.6,19.3-14.3c0.8-0.4,1.5-0.8,1.9-1.1c2.9-1.7,6.2-3.5,9.7-5.4
		c3.6-1.9,7.4-4,11.6-6.1c0.3-0.1,0.6,0,0.7,0.3c0.1,0.3,0,0.6-0.3,0.8c-4.2,2.2-8.1,4.2-11.6,6.1c-3.5,1.9-6.8,3.7-9.7,5.4
		c-0.5,0.3-1.2,0.7-1.9,1.1c-5,2.7-15.1,8.2-18.9,14c-2,3-2.2,6.1,1.3,8.9c1.1,0.8,2.4,1.7,4,2.6C378.2,51.2,380.1,52.1,382.2,52.9z
		"/>
</g>
</svg>
