<?xml version="1.0" encoding="UTF-8"?>
<svg width="30px" height="26px" viewBox="0 0 30 26" version="1.1" xmlns="http://www.w3.org/2000/svg" xmlns:xlink="http://www.w3.org/1999/xlink">
    <title>Group 11</title>
    <defs>
        <polygon id="path-1" points="0.00016429817 0.0999 29.7823285 0.0999 29.7823285 3.57912095 0.00016429817 3.57912095"></polygon>
        <polygon id="path-3" points="0.107189809 0.140857143 5.62808732 0.140857143 5.62808732 7.53091398 0.107189809 7.53091398"></polygon>
    </defs>
    <g id="UI" stroke="none" stroke-width="1" fill="none" fill-rule="evenodd">
        <g id="Group-11" transform="translate(0.000000, 0.000000)">
            <path d="M25.7181616,15.4541143 L25.7181616,15.6695429 C25.7181616,18.7489714 25.7181616,21.8286857 25.7178943,24.9081143 C25.7178943,25.5046857 25.3885803,25.8589714 24.8320612,25.8589714 C18.2064895,25.8591857 11.581185,25.8591857 4.95614791,25.8589714 C4.39855955,25.8589714 4.06897832,25.5055429 4.06897832,24.9086857 C4.06844372,21.8229714 4.06871102,18.7369714 4.06844372,15.6509714 L4.06844372,15.4541143 L25.7181616,15.4541143 Z" id="Fill-1" fill="#1781F1"></path>
            <g id="Group-5" transform="translate(0.000000, 11.002114)">
                <mask id="mask-2" fill="white">
                    <use xlink:href="#path-1"></use>
                </mask>
                <g id="Clip-4"></g>
                <path d="M14.8990229,3.57197143 C10.2501366,3.57197143 5.60125037,3.56597143 0.952096822,3.57912095 C0.325277695,3.58111429 -0.0224799525,3.13254286 0.00130977131,2.56968571 C0.0218918919,2.07425714 0.00478467478,1.57711429 0.00531927532,1.08082857 C0.00612117612,0.450542857 0.332227502,0.100542857 0.922693793,0.100257143 C4.50024057,0.0996857143 8.07778735,0.0999714286 11.6553341,0.0999714286 C17.3696792,0.0999714286 23.0842917,0.0996857143 28.7989041,0.102257143 C28.9456519,0.102257143 29.0996169,0.112257143 29.2380784,0.159114286 C29.5783516,0.274257143 29.7782922,0.599971429 29.780698,1.0114 C29.7839056,1.55197143 29.7825707,2.09282857 29.7809653,2.63368571 C29.7793614,3.21568571 29.4468399,3.5714 28.8996763,3.57168571 C26.3817078,3.57254286 23.8637392,3.57197143 21.3457707,3.57197143 L14.8990229,3.57197143 Z" id="Fill-3" fill="#1781F1" mask="url(#mask-2)"></path>
            </g>
            <g id="Group-8" transform="translate(12.028512, 0.144971)">
                <mask id="mask-4" fill="white">
                    <use xlink:href="#path-3"></use>
                </mask>
                <g id="Clip-7"></g>
                <path d="M5.62808732,3.13822857 C5.58612118,4.28794286 5.40328779,5.28451429 4.86467775,6.17051429 C4.72300861,6.40308571 4.55648055,6.62508571 4.37204336,6.82051429 C3.47926047,7.76508571 2.26331155,7.76708571 1.36277695,6.83022857 C0.724998515,6.16708571 0.39007128,5.33308571 0.227285417,4.41622857 C0.0979120879,3.68822857 0.0281467181,2.95737143 0.255619246,2.22937143 C0.636254826,1.01165714 1.66402435,0.159371429 2.78802198,0.141085714 C4.10447579,0.119942857 5.24664984,1.09251429 5.53987823,2.4948 C5.59146718,2.74137143 5.609109,2.99622857 5.62808732,3.13822857" id="Fill-6" fill="#1781F1" mask="url(#mask-4)"></path>
            </g>
            <path d="M17.0854589,7.3566 C18.7109118,7.4666 19.994755,8.90288571 20.2211583,10.2311714 L9.57057915,10.2311714 C9.60425898,8.96374286 11.2946659,7.40317143 12.6918444,7.35431429 C12.7859341,7.9266 13.1823404,8.19688571 13.6423641,8.37745714 C14.4771429,8.70488571 15.3202079,8.69888571 16.1560558,8.37317143 C16.321782,8.3086 16.4794892,8.21117143 16.6270389,8.1066 C16.8732225,7.93231429 17.0475022,7.6966 17.0854589,7.3566" id="Fill-9" fill="#1781F1"></path>
        </g>
    </g>
</svg>