<?xml version="1.0" encoding="utf-8"?>
<!-- Generator: Adobe Illustrator 21.0.1, SVG Export Plug-In . SVG Version: 6.00 Build 0)  -->
<svg version="1.1" id="Layer_1" xmlns="http://www.w3.org/2000/svg" xmlns:xlink="http://www.w3.org/1999/xlink" x="0px" y="0px"
	 viewBox="0 0 13 20" style="enable-background:new 0 0 13 20;" xml:space="preserve">
<style type="text/css">
	.st0{fill:#1781F1;}
</style>
<title>rss_feed - material</title>
<path class="st0" d="M0.9,8.7c0.4-0.4,0.8-0.5,1.3-0.5c0.5,0,0.9,0.2,1.3,0.6C3.8,9.1,4,9.5,4,10c0,0.5-0.2,0.9-0.5,1.3
	s-0.8,0.5-1.3,0.6c-0.5,0-0.9-0.2-1.3-0.5c-0.4-0.4-0.5-0.8-0.5-1.3C0.3,9.5,0.5,9.1,0.9,8.7z M5.4,4.1c1.1,1.1,1.8,2.3,2.2,3.7
	c0.4,1.4,0.4,2.8,0,4.2c-0.4,1.4-1.1,2.7-2.2,3.7l-1.7-1.7c0.8-0.8,1.3-1.6,1.5-2.7c0.3-1,0.3-2,0-3C5,7.5,4.5,6.6,3.7,5.8L5.4,4.1z
	 M8.7,0.8c1.2,1.2,2.2,2.7,2.8,4.3c0.6,1.6,0.9,3.2,0.9,4.9c0,1.7-0.3,3.3-0.9,4.9c-0.7,1.6-1.6,3.1-2.8,4.3l-1.7-1.7
	c1-1,1.8-2.2,2.3-3.5c0.5-1.3,0.8-2.6,0.8-4S9.9,7.3,9.4,6C8.9,4.7,8.1,3.5,7.1,2.5L8.7,0.8z"/>
</svg>
