<svg xmlns="http://www.w3.org/2000/svg" xmlns:xlink="http://www.w3.org/1999/xlink" viewBox="0 0 34.98 59.13"><defs><linearGradient id="linear-gradient" x1="1111.95" y1="7.39" x2="1118.51" y2="12.9" gradientTransform="matrix(-1, 0, 0, 1, 1126.03, 0)" gradientUnits="userSpaceOnUse"><stop offset="0" stop-color="#fff"/><stop offset="0.37" stop-color="#fdfdfd"/><stop offset="0.51" stop-color="#f6f6f6"/><stop offset="0.6" stop-color="#ebebeb"/><stop offset="0.68" stop-color="#dadada"/><stop offset="0.75" stop-color="#c4c4c4"/><stop offset="0.8" stop-color="#a8a8a8"/><stop offset="0.86" stop-color="#888"/><stop offset="0.91" stop-color="#626262"/><stop offset="0.95" stop-color="#373737"/><stop offset="0.99" stop-color="#090909"/><stop offset="1"/></linearGradient><mask id="mask" x="0" y="3.46" width="21.62" height="12.91" maskUnits="userSpaceOnUse"><polygon points="0 3.91 0.05 4.01 10.53 16.37 21.62 16.37 10.72 3.46 0 3.91" style="fill:url(#linear-gradient)"/></mask><linearGradient id="linear-gradient-2" x1="3.47" y1="3.57" x2="9.46" y2="1.5" gradientUnits="userSpaceOnUse"><stop offset="0" stop-color="#2a2d3c"/><stop offset="1" stop-color="#5c5d64"/></linearGradient><linearGradient id="linear-gradient-3" x1="1108.65" y1="57.83" x2="1108.65" gradientTransform="matrix(-1, 0, 0, 1, 1126.03, 0)" gradientUnits="userSpaceOnUse"><stop offset="0" stop-color="#5b5a5b"/><stop offset="1" stop-color="#dedfe0"/></linearGradient><linearGradient id="linear-gradient-4" x1="1104.97" y1="57.83" x2="1104.97" gradientTransform="matrix(-1, 0, 0, 1, 1126.03, 0)" gradientUnits="userSpaceOnUse"><stop offset="0" stop-color="#d8d7d2"/><stop offset="0.39" stop-color="#dad8d5"/><stop offset="0.94" stop-color="#ebeaea"/><stop offset="1" stop-color="#d6d6d6"/></linearGradient><linearGradient id="linear-gradient-5" x1="1114.97" y1="3.37" x2="1123.84" y2="3.37" gradientTransform="matrix(-1, 0, 0, 1, 1126.03, 0)" gradientUnits="userSpaceOnUse"><stop offset="0" stop-color="#fff"/><stop offset="0.01" stop-color="#f6f6f6"/><stop offset="0.05" stop-color="#c8c8c8"/><stop offset="0.09" stop-color="#9d9d9d"/><stop offset="0.14" stop-color="#777"/><stop offset="0.2" stop-color="#575757"/><stop offset="0.25" stop-color="#3b3b3b"/><stop offset="0.32" stop-color="#252525"/><stop offset="0.4" stop-color="#141414"/><stop offset="0.49" stop-color="#090909"/><stop offset="0.63" stop-color="#020202"/><stop offset="1"/></linearGradient></defs><title>s1</title><g style="isolation:isolate"><g id="Layer_2" data-name="Layer 2"><g id="Layer_2-2" data-name="Layer 2"><g style="mask:url(#mask)"><g style="opacity:0.7000000000000001;mix-blend-mode:multiply"><polygon points="0 3.91 10.98 3.91 9.88 4.09 0.05 4 0 3.91" style="fill:#3a3132"/><polygon points="0.07 3.99 11.05 3.99 9.95 4.17 0.12 4.08 0.07 3.99" style="fill:#3b3233;opacity:0.994701"/><polygon points="0.14 4.07 11.12 4.07 10.02 4.25 0.19 4.16 0.14 4.07" style="fill:#3c3334;opacity:0.9894029999999999"/><polygon points="0.21 4.15 11.19 4.15 10.09 4.33 0.26 4.24 0.21 4.15" style="fill:#3d3435;opacity:0.984105"/><polygon points="0.28 4.23 11.26 4.23 10.16 4.41 0.33 4.32 0.28 4.23" style="fill:#3d3536;opacity:0.978807"/><polygon points="0.35 4.32 11.32 4.32 10.23 4.5 0.4 4.41 0.35 4.32" style="fill:#3e3636;opacity:0.973509"/><polygon points="0.41 4.4 11.39 4.4 10.3 4.58 0.47 4.49 0.41 4.4" style="fill:#3f3637;opacity:0.9682109999999999"/><polygon points="0.48 4.48 11.46 4.48 10.37 4.66 0.54 4.57 0.48 4.48" style="fill:#403738;opacity:0.9629129999999999"/><polygon points="0.55 4.56 11.53 4.56 10.44 4.74 0.61 4.65 0.55 4.56" style="fill:#413839;opacity:0.957615"/><polygon points="0.62 4.64 11.6 4.64 10.5 4.82 0.68 4.73 0.62 4.64" style="fill:#42393a;opacity:0.952317"/><polygon points="0.69 4.72 11.67 4.72 10.57 4.9 0.75 4.81 0.69 4.72" style="fill:#423a3b;opacity:0.9470189999999999"/><polygon points="0.76 4.8 11.74 4.8 10.64 4.98 0.81 4.89 0.76 4.8" style="fill:#433b3c;opacity:0.9417209999999999"/><polygon points="0.83 4.88 11.81 4.88 10.71 5.06 0.88 4.97 0.83 4.88" style="fill:#443c3d;opacity:0.936423"/><polygon points="0.9 4.96 11.88 4.96 10.78 5.14 0.95 5.06 0.9 4.96" style="fill:#453d3e;opacity:0.931125"/><polygon points="0.97 5.05 11.95 5.05 10.85 5.23 1.02 5.14 0.97 5.05" style="fill:#463e3f;opacity:0.925827"/><polygon points="1.04 5.13 12.02 5.13 10.92 5.31 1.09 5.22 1.04 5.13" style="fill:#473f3f;opacity:0.9205289999999999"/><polygon points="1.11 5.21 12.09 5.21 10.99 5.39 1.16 5.3 1.11 5.21" style="fill:#473f40;opacity:0.9152309999999999"/><polygon points="1.18 5.29 12.16 5.29 11.06 5.47 1.23 5.38 1.18 5.29" style="fill:#484041;opacity:0.909933"/><polygon points="1.25 5.37 12.23 5.37 11.13 5.55 1.3 5.46 1.25 5.37" style="fill:#494142;opacity:0.904635"/><polygon points="1.32 5.45 12.29 5.45 11.2 5.63 1.37 5.54 1.32 5.45" style="fill:#4a4243;opacity:0.8993369999999999"/><polygon points="1.39 5.53 12.37 5.53 11.27 5.71 1.44 5.63 1.39 5.53" style="fill:#4b4344;opacity:0.8940389999999999"/><polygon points="1.46 5.62 12.43 5.62 11.34 5.8 1.51 5.71 1.46 5.62" style="fill:#4c4445;opacity:0.888741"/><polygon points="1.52 5.7 12.5 5.7 11.4 5.88 1.58 5.79 1.52 5.7" style="fill:#4d4546;opacity:0.883443"/><polygon points="1.59 5.78 12.57 5.78 11.47 5.96 1.65 5.87 1.59 5.78" style="fill:#4d4647;opacity:0.878145"/><polygon points="1.66 5.86 12.64 5.86 11.54 6.04 1.72 5.95 1.66 5.86" style="fill:#4e4747;opacity:0.8728469999999999"/><polygon points="1.73 5.94 12.71 5.94 11.61 6.12 1.78 6.03 1.73 5.94" style="fill:#4f4848;opacity:0.867549"/><polygon points="1.8 6.02 12.78 6.02 11.68 6.2 1.85 6.11 1.8 6.02" style="fill:#504849;opacity:0.862251"/><polygon points="1.87 6.1 12.85 6.1 11.75 6.28 1.92 6.19 1.87 6.1" style="fill:#51494a;opacity:0.8569519999999999"/><polygon points="1.94 6.18 12.92 6.18 11.82 6.37 1.99 6.28 1.94 6.18" style="fill:#524a4b;opacity:0.8516539999999999"/><polygon points="2.01 6.27 12.99 6.27 11.89 6.45 2.06 6.36 2.01 6.27" style="fill:#524b4c;opacity:0.8463569999999999"/><polygon points="2.08 6.35 13.06 6.35 11.96 6.53 2.13 6.44 2.08 6.35" style="fill:#534c4d;opacity:0.841058"/><polygon points="2.15 6.43 13.13 6.43 12.03 6.61 2.2 6.52 2.15 6.43" style="fill:#544d4e;opacity:0.8357600000000001"/><polygon points="2.22 6.51 13.2 6.51 12.1 6.69 2.27 6.6 2.22 6.51" style="fill:#554e4f;opacity:0.8304619999999999"/><polygon points="2.29 6.59 13.27 6.59 12.17 6.77 2.34 6.68 2.29 6.59" style="fill:#564f50;opacity:0.825164"/><polygon points="2.36 6.67 13.33 6.67 12.24 6.85 2.41 6.76 2.36 6.67" style="fill:#575050;opacity:0.819866"/><polygon points="2.42 6.75 13.4 6.75 12.3 6.93 2.48 6.84 2.42 6.75" style="fill:#575151;opacity:0.814568"/><polygon points="2.49 6.83 13.47 6.83 12.38 7.02 2.55 6.93 2.49 6.83" style="fill:#585152;opacity:0.80927"/><polygon points="2.56 6.92 13.54 6.92 12.44 7.1 2.62 7.01 2.56 6.92" style="fill:#595253;opacity:0.8039719999999999"/><polygon points="2.63 7 13.61 7 12.51 7.18 2.69 7.09 2.63 7" style="fill:#5a5354;opacity:0.798674"/><polygon points="2.7 7.08 13.68 7.08 12.58 7.26 2.75 7.17 2.7 7.08" style="fill:#5b5455;opacity:0.793376"/><polygon points="2.77 7.16 13.75 7.16 12.65 7.34 2.82 7.25 2.77 7.16" style="fill:#5c5556;opacity:0.788078"/><polygon points="2.84 7.24 13.82 7.24 12.72 7.42 2.89 7.33 2.84 7.24" style="fill:#5c5657;opacity:0.78278"/><polygon points="2.91 7.32 13.89 7.32 12.79 7.5 2.96 7.41 2.91 7.32" style="fill:#5d5758;opacity:0.777482"/><polygon points="2.98 7.4 13.96 7.4 12.86 7.58 3.03 7.49 2.98 7.4" style="fill:#5e5858;opacity:0.772184"/><polygon points="3.05 7.49 14.03 7.49 12.93 7.67 3.1 7.58 3.05 7.49" style="fill:#5f5959;opacity:0.766886"/><polygon points="3.12 7.57 14.1 7.57 13 7.75 3.17 7.66 3.12 7.57" style="fill:#605a5a;opacity:0.7615879999999999"/><polygon points="3.19 7.65 14.17 7.65 13.07 7.83 3.24 7.74 3.19 7.65" style="fill:#615a5b;opacity:0.75629"/><polygon points="3.26 7.73 14.23 7.73 13.14 7.91 3.31 7.82 3.26 7.73" style="fill:#625b5c;opacity:0.750992"/><polygon points="3.33 7.81 14.3 7.81 13.21 7.99 3.38 7.9 3.33 7.81" style="fill:#625c5d;opacity:0.745694"/><polygon points="3.4 7.89 14.37 7.89 13.28 8.07 3.45 7.98 3.4 7.89" style="fill:#635d5e;opacity:0.7403959999999999"/><polygon points="3.46 7.97 14.44 7.97 13.35 8.15 3.52 8.06 3.46 7.97" style="fill:#645e5f;opacity:0.7350979999999999"/><polygon points="3.53 8.05 14.51 8.05 13.41 8.23 3.59 8.14 3.53 8.05" style="fill:#655f60;opacity:0.7298"/><polygon points="3.6 8.14 14.58 8.14 13.48 8.32 3.66 8.23 3.6 8.14" style="fill:#666060;opacity:0.724502"/><polygon points="3.67 8.22 14.65 8.22 13.55 8.4 3.73 8.31 3.67 8.22" style="fill:#676161;opacity:0.719204"/><polygon points="3.74 8.3 14.72 8.3 13.62 8.48 3.79 8.39 3.74 8.3" style="fill:#676262;opacity:0.7139059999999999"/><polygon points="3.81 8.38 14.79 8.38 13.69 8.56 3.86 8.47 3.81 8.38" style="fill:#686363;opacity:0.708608"/><polygon points="3.88 8.46 14.86 8.46 13.76 8.64 3.93 8.55 3.88 8.46" style="fill:#696364;opacity:0.7033100000000001"/><polygon points="3.95 8.54 14.93 8.54 13.83 8.72 4 8.63 3.95 8.54" style="fill:#6a6465;opacity:0.698012"/><polygon points="4.02 8.62 15 8.62 13.9 8.8 4.07 8.71 4.02 8.62" style="fill:#6b6566;opacity:0.6927139999999999"/><polygon points="4.09 8.71 15.07 8.71 13.97 8.89 4.14 8.79 4.09 8.71" style="fill:#6c6667;opacity:0.6874159999999999"/><polygon points="4.16 8.79 15.14 8.79 14.04 8.97 4.21 8.88 4.16 8.79" style="fill:#6c6768;opacity:0.682118"/><polygon points="4.23 8.87 15.21 8.87 14.11 9.05 4.28 8.96 4.23 8.87" style="fill:#6d6869;opacity:0.6768200000000001"/><polygon points="4.29 8.95 15.28 8.95 14.18 9.13 4.35 9.04 4.29 8.95" style="fill:#6e6969;opacity:0.671522"/><polygon points="4.37 9.03 15.34 9.03 14.25 9.21 4.42 9.12 4.37 9.03" style="fill:#6f6a6a;opacity:0.6662239999999999"/><polygon points="4.43 9.11 15.41 9.11 14.31 9.29 4.49 9.2 4.43 9.11" style="fill:#706b6b;opacity:0.660926"/><polygon points="4.5 9.19 15.48 9.19 14.38 9.37 4.56 9.28 4.5 9.19" style="fill:#716c6c;opacity:0.655628"/><polygon points="4.57 9.27 15.55 9.27 14.45 9.46 4.63 9.36 4.57 9.27" style="fill:#726c6d;opacity:0.6503300000000001"/><polygon points="4.64 9.36 15.62 9.36 14.52 9.54 4.7 9.45 4.64 9.36" style="fill:#726d6e;opacity:0.6450319999999999"/><polygon points="4.71 9.44 15.69 9.44 14.59 9.62 4.76 9.53 4.71 9.44" style="fill:#736e6f;opacity:0.639734"/><polygon points="4.78 9.52 15.76 9.52 14.66 9.7 4.83 9.61 4.78 9.52" style="fill:#746f70;opacity:0.634436"/><polygon points="4.85 9.6 15.83 9.6 14.73 9.78 4.9 9.69 4.85 9.6" style="fill:#757071;opacity:0.629138"/><polygon points="4.92 9.68 15.9 9.68 14.8 9.86 4.97 9.77 4.92 9.68" style="fill:#767171;opacity:0.6238400000000001"/><polygon points="4.99 9.76 15.97 9.76 14.87 9.94 5.04 9.85 4.99 9.76" style="fill:#777272;opacity:0.6185419999999999"/><polygon points="5.06 9.84 16.04 9.84 14.94 10.02 5.11 9.93 5.06 9.84" style="fill:#777373;opacity:0.613244"/><polygon points="5.13 9.93 16.11 9.93 15.01 10.11 5.18 10.02 5.13 9.93" style="fill:#787474;opacity:0.607946"/><polygon points="5.2 10.01 16.18 10.01 15.08 10.19 5.25 10.1 5.2 10.01" style="fill:#797575;opacity:0.602648"/><polygon points="5.26 10.09 16.25 10.09 15.15 10.27 5.32 10.18 5.26 10.09" style="fill:#7a7576;opacity:0.59735"/><polygon points="5.33 10.17 16.31 10.17 15.21 10.35 5.39 10.26 5.33 10.17" style="fill:#7b7677;opacity:0.592052"/><polygon points="5.4 10.25 16.38 10.25 15.29 10.43 5.46 10.34 5.4 10.25" style="fill:#7c7778;opacity:0.586754"/><polygon points="5.47 10.33 16.45 10.33 15.35 10.51 5.53 10.42 5.47 10.33" style="fill:#7c7879;opacity:0.581456"/><polygon points="5.54 10.41 16.52 10.41 15.42 10.59 5.6 10.5 5.54 10.41" style="fill:#7d797a;opacity:0.576158"/><polygon points="5.61 10.49 16.59 10.49 15.49 10.67 5.67 10.58 5.61 10.49" style="fill:#7e7a7a;opacity:0.57086"/><polygon points="5.68 10.57 16.66 10.57 15.56 10.76 5.73 10.66 5.68 10.57" style="fill:#7f7b7b;opacity:0.565562"/><polygon points="5.75 10.66 16.73 10.66 15.63 10.84 5.8 10.75 5.75 10.66" style="fill:#807c7c;opacity:0.560264"/><polygon points="5.82 10.74 16.8 10.74 15.7 10.92 5.87 10.83 5.82 10.74" style="fill:#817d7d;opacity:0.554966"/><polygon points="5.89 10.82 16.87 10.82 15.77 11 5.94 10.91 5.89 10.82" style="fill:#817e7e;opacity:0.5496679999999999"/><polygon points="5.96 10.9 16.94 10.9 15.84 11.08 6.01 10.99 5.96 10.9" style="fill:#827e7f;opacity:0.54437"/><polygon points="6.03 10.98 17.01 10.98 15.91 11.16 6.08 11.07 6.03 10.98" style="fill:#837f80;opacity:0.539072"/><polygon points="6.1 11.06 17.08 11.06 15.98 11.24 6.15 11.15 6.1 11.06" style="fill:#848081;opacity:0.533774"/><polygon points="6.17 11.14 17.14 11.14 16.05 11.32 6.22 11.23 6.17 11.14" style="fill:#858182;opacity:0.528476"/><polygon points="6.24 11.23 17.21 11.23 16.12 11.41 6.29 11.32 6.24 11.23" style="fill:#868282;opacity:0.5231779999999999"/><polygon points="6.3 11.31 17.28 11.31 16.19 11.49 6.36 11.4 6.3 11.31" style="fill:#878383;opacity:0.51788"/><polygon points="6.37 11.39 17.35 11.39 16.25 11.57 6.43 11.48 6.37 11.39" style="fill:#878484;opacity:0.512582"/><polygon points="6.44 11.47 17.42 11.47 16.32 11.65 6.5 11.56 6.44 11.47" style="fill:#888585;opacity:0.507284"/><polygon points="6.51 11.55 17.49 11.55 16.39 11.73 6.57 11.64 6.51 11.55" style="fill:#898686;opacity:0.5019859999999999"/><polygon points="6.58 11.63 17.56 11.63 16.46 11.81 6.63 11.72 6.58 11.63" style="fill:#8a8787;opacity:0.49668799999999996"/><polygon points="6.65 11.71 17.63 11.71 16.53 11.89 6.71 11.8 6.65 11.71" style="fill:#8b8788;opacity:0.49139000000000005"/><polygon points="6.72 11.79 17.7 11.79 16.6 11.97 6.77 11.88 6.72 11.79" style="fill:#8c8889;opacity:0.48609199999999997"/><polygon points="6.79 11.88 17.77 11.88 16.67 12.06 6.84 11.97 6.79 11.88" style="fill:#8c898a;opacity:0.480794"/><polygon points="6.86 11.96 17.84 11.96 16.74 12.14 6.91 12.05 6.86 11.96" style="fill:#8d8a8b;opacity:0.475496"/><polygon points="6.93 12.04 17.91 12.04 16.81 12.22 6.98 12.13 6.93 12.04" style="fill:#8e8b8b;opacity:0.470198"/><polygon points="7 12.12 17.98 12.12 16.88 12.3 7.05 12.21 7 12.12" style="fill:#8f8c8c;opacity:0.46490000000000004"/><polygon points="7.07 12.2 18.05 12.2 16.95 12.38 7.12 12.29 7.07 12.2" style="fill:#908d8d;opacity:0.45960199999999996"/><polygon points="7.14 12.28 18.11 12.28 17.02 12.46 7.19 12.37 7.14 12.28" style="fill:#918e8e;opacity:0.454304"/><polygon points="7.21 12.36 18.18 12.36 17.09 12.54 7.26 12.45 7.21 12.36" style="fill:#918f8f;opacity:0.44900599999999996"/><polygon points="7.27 12.45 18.25 12.45 17.16 12.63 7.33 12.54 7.27 12.45" style="fill:#929090;opacity:0.443708"/><polygon points="7.34 12.53 18.32 12.53 17.23 12.71 7.4 12.62 7.34 12.53" style="fill:#939091;opacity:0.43841"/><polygon points="7.41 12.61 18.39 12.61 17.29 12.79 7.47 12.7 7.41 12.61" style="fill:#949192;opacity:0.433112"/><polygon points="7.48 12.69 18.46 12.69 17.36 12.87 7.54 12.78 7.48 12.69" style="fill:#959293;opacity:0.42781399999999997"/><polygon points="7.55 12.77 18.53 12.77 17.43 12.95 7.61 12.86 7.55 12.77" style="fill:#969393;opacity:0.422516"/><polygon points="7.62 12.85 18.6 12.85 17.5 13.03 7.67 12.94 7.62 12.85" style="fill:#979494;opacity:0.417218"/><polygon points="7.69 12.93 18.67 12.93 17.57 13.11 7.74 13.02 7.69 12.93" style="fill:#979595;opacity:0.41192"/><polygon points="7.76 13.02 18.74 13.02 17.64 13.19 7.81 13.1 7.76 13.02" style="fill:#989696;opacity:0.406622"/><polygon points="7.83 13.1 18.81 13.1 17.71 13.28 7.88 13.19 7.83 13.1" style="fill:#999797;opacity:0.40132399999999996"/><polygon points="7.9 13.18 18.88 13.18 17.78 13.36 7.95 13.27 7.9 13.18" style="fill:#9a9898;opacity:0.396026"/><polygon points="7.97 13.26 18.95 13.26 17.85 13.44 8.02 13.35 7.97 13.26" style="fill:#9b9999;opacity:0.39072799999999996"/><polygon points="8.04 13.34 19.02 13.34 17.92 13.52 8.09 13.43 8.04 13.34" style="fill:#9c999a;opacity:0.38543000000000005"/><polygon points="8.11 13.42 19.09 13.42 17.99 13.6 8.16 13.51 8.11 13.42" style="fill:#9c9a9b;opacity:0.38013199999999997"/><polygon points="8.18 13.5 19.16 13.5 18.06 13.68 8.23 13.59 8.18 13.5" style="fill:#9d9b9b;opacity:0.374834"/><polygon points="8.24 13.58 19.22 13.58 18.13 13.76 8.3 13.67 8.24 13.58" style="fill:#9e9c9c;opacity:0.369536"/><polygon points="8.31 13.66 19.29 13.66 18.2 13.85 8.37 13.76 8.31 13.66" style="fill:#9f9d9d;opacity:0.364238"/><polygon points="8.38 13.75 19.36 13.75 18.26 13.93 8.44 13.84 8.38 13.75" style="fill:#a09e9e;opacity:0.35894000000000004"/><polygon points="8.45 13.83 19.43 13.83 18.33 14.01 8.51 13.92 8.45 13.83" style="fill:#a19f9f;opacity:0.35364199999999996"/><polygon points="8.52 13.91 19.5 13.91 18.4 14.09 8.57 14 8.52 13.91" style="fill:#a1a0a0;opacity:0.348344"/><polygon points="8.59 13.99 19.57 13.99 18.47 14.17 8.64 14.08 8.59 13.99" style="fill:#a2a1a1;opacity:0.34304599999999996"/><polygon points="8.66 14.07 19.64 14.07 18.54 14.25 8.71 14.16 8.66 14.07" style="fill:#a3a2a2;opacity:0.337748"/><polygon points="8.73 14.15 19.71 14.15 18.61 14.33 8.78 14.24 8.73 14.15" style="fill:#a4a2a3;opacity:0.33245"/><polygon points="8.8 14.23 19.78 14.23 18.68 14.41 8.85 14.32 8.8 14.23" style="fill:#a5a3a4;opacity:0.327152"/><polygon points="8.87 14.31 19.85 14.31 18.75 14.5 8.92 14.4 8.87 14.31" style="fill:#a6a4a4;opacity:0.321854"/><polygon points="8.94 14.4 19.92 14.4 18.82 14.58 8.99 14.49 8.94 14.4" style="fill:#a6a5a5;opacity:0.316556"/><polygon points="9.01 14.48 19.99 14.48 18.89 14.66 9.06 14.57 9.01 14.48" style="fill:#a7a6a6;opacity:0.311258"/><polygon points="9.08 14.56 20.05 14.56 18.96 14.74 9.13 14.65 9.08 14.56" style="fill:#a8a7a7;opacity:0.30596"/><polygon points="9.14 14.64 20.12 14.64 19.03 14.82 9.2 14.73 9.14 14.64" style="fill:#a9a8a8;opacity:0.300662"/><polygon points="9.21 14.72 20.19 14.72 19.09 14.9 9.27 14.81 9.21 14.72" style="fill:#aaa9a9;opacity:0.29536399999999996"/><polygon points="9.28 14.8 20.26 14.8 19.16 14.98 9.34 14.89 9.28 14.8" style="fill:#abaaaa;opacity:0.290066"/><polygon points="9.35 14.88 20.33 14.88 19.23 15.06 9.41 14.97 9.35 14.88" style="fill:#acabab;opacity:0.28476799999999997"/><polygon points="9.42 14.97 20.4 14.97 19.3 15.15 9.48 15.06 9.42 14.97" style="fill:#acabac;opacity:0.27947"/><polygon points="9.49 15.05 20.47 15.05 19.37 15.23 9.54 15.14 9.49 15.05" style="fill:#adacac;opacity:0.27417199999999997"/><polygon points="9.56 15.13 20.54 15.13 19.44 15.31 9.61 15.22 9.56 15.13" style="fill:#aeadad;opacity:0.268874"/><polygon points="9.63 15.21 20.61 15.21 19.51 15.39 9.68 15.3 9.63 15.21" style="fill:#afaeae;opacity:0.263576"/><polygon points="9.7 15.29 20.68 15.29 19.58 15.47 9.75 15.38 9.7 15.29" style="fill:#b0afaf;opacity:0.258278"/><polygon points="9.77 15.37 20.75 15.37 19.65 15.55 9.82 15.46 9.77 15.37" style="fill:#b1b0b0;opacity:0.25298000000000004"/><polygon points="9.84 15.45 20.82 15.45 19.72 15.63 9.89 15.54 9.84 15.45" style="fill:#b1b1b1;opacity:0.24768199999999999"/><polygon points="9.91 15.54 20.89 15.54 19.79 15.71 9.96 15.63 9.91 15.54" style="fill:#b2b2b2;opacity:0.242384"/><polygon points="9.98 15.62 20.96 15.62 19.86 15.8 10.03 15.71 9.98 15.62" style="fill:#b3b3b3;opacity:0.237086"/><polygon points="10.04 15.7 21.02 15.7 19.93 15.88 10.1 15.79 10.04 15.7" style="fill:#b4b4b4;opacity:0.231788"/><polygon points="10.12 15.78 21.09 15.78 20 15.96 10.17 15.87 10.12 15.78" style="fill:#b5b4b5;opacity:0.22649000000000002"/><polygon points="10.19 15.86 21.16 15.86 20.07 16.04 10.24 15.95 10.19 15.86" style="fill:#b6b5b5;opacity:0.221192"/><polygon points="10.25 15.94 21.23 15.94 20.14 16.12 10.31 16.03 10.25 15.94" style="fill:#b6b6b6;opacity:0.215894"/><polygon points="10.32 16.02 21.3 16.02 20.2 16.2 10.38 16.11 10.32 16.02" style="fill:#b7b7b7;opacity:0.21059599999999998"/><polygon points="10.39 16.1 21.37 16.1 20.27 16.29 10.45 16.19 10.39 16.1" style="fill:#b8b8b8;opacity:0.20529799999999998"/><polygon points="10.46 16.19 21.44 16.19 20.34 16.37 10.52 16.27 10.46 16.19" style="fill:#b9b9b9;opacity:0.2"/></g></g><polygon points="0 3.91 10.04 3.91 9.66 3.46 0.11 3.76 0 3.91" style="fill:#18212d"/><polygon points="0.11 1.98 0 1.88 3.17 1.88 2.71 1.98 0.11 1.98" style="fill:#527cb9"/><polygon points="0.11 1.98 3.46 1.98 9.59 2.66 9.66 3.62 0.11 3.76 0.11 1.98" style="fill:#3c567f"/><polygon points="1.08 3.2 9.59 3.03 9.29 1.42 8.11 0.4 1.26 2.77 1.08 3.2" style="fill:url(#linear-gradient-2)"/><path d="M1.12,2.59,8,0H30.4c3,.9,3.28,9.7,3.28,9.7V57.83H10.58l-.24-.13s-.06-48.15-.06-48.5V9.11c0-.19-.23-6.92-1.83-8.25a1.19,1.19,0,0,0-1,.07C6.77,1.19,1.08,3.2,1.08,3.2Z" style="fill:url(#linear-gradient-3)"/><path d="M10.58,57.83H33.91V9.7S33.68.9,30.64,0H8.2s1.47.09,2.06,5.2a35.44,35.44,0,0,1,.26,4C10.52,9.55,10.58,57.83,10.58,57.83Z" style="fill:url(#linear-gradient-4)"/><rect x="12.13" y="17.13" width="20.6" height="30.09" transform="translate(44.86 64.35) rotate(180)" style="fill:#266ec1"/><polygon points="12.13 47.22 11.84 47.01 11.84 17.29 12.13 17.13 12.13 47.22" style="fill:#14438a"/><g style="opacity:0.30000000000000004;mix-blend-mode:multiply"><rect x="18.24" y="25.13" width="9.52" height="5.05" rx="0.84" ry="0.84" style="fill:#266ec1;opacity:0"/><path d="M19,25.07h7.85a.83.83,0,0,1,.83.83v3.38a.83.83,0,0,1-.83.83H19a.84.84,0,0,1-.84-.84V25.91A.84.84,0,0,1,19,25.07Z" style="fill:#2566b2;opacity:0.09090899999999999"/><path d="M19,25h7.85a.84.84,0,0,1,.84.84v3.38a.84.84,0,0,1-.84.84H19a.83.83,0,0,1-.83-.83V25.84A.83.83,0,0,1,19,25Z" style="fill:#235ea2;opacity:0.18181799999999998"/><path d="M18.94,24.95h7.85a.84.84,0,0,1,.84.84v3.38a.84.84,0,0,1-.84.84H18.94a.83.83,0,0,1-.83-.83V25.78A.84.84,0,0,1,18.94,24.95Z" style="fill:#225693;opacity:0.272727"/><rect x="18.06" y="24.88" width="9.52" height="5.05" rx="0.84" ry="0.84" style="fill:#214e84;opacity:0.36363599999999996"/><rect x="18.01" y="24.82" width="9.52" height="5.05" rx="0.84" ry="0.84" style="fill:#1f4675;opacity:0.454546"/><rect x="17.97" y="24.76" width="9.52" height="5.05" rx="0.84" ry="0.84" style="fill:#1e3f65;opacity:0.545455"/><rect x="17.92" y="24.7" width="9.52" height="5.05" rx="0.83" ry="0.83" style="fill:#1c3756;opacity:0.6363639999999999"/><path d="M18.71,24.64h7.85a.83.83,0,0,1,.83.83v3.38a.83.83,0,0,1-.83.83H18.71a.84.84,0,0,1-.84-.84V25.47A.84.84,0,0,1,18.71,24.64Z" style="fill:#1b2f47;opacity:0.727273"/><rect x="17.83" y="24.57" width="9.52" height="5.05" rx="0.84" ry="0.84" style="fill:#1a2738;opacity:0.818182"/><rect x="17.78" y="24.51" width="9.52" height="5.05" rx="0.84" ry="0.84" style="fill:#181f28;opacity:0.909091"/><rect x="17.74" y="24.45" width="9.52" height="5.05" rx="0.84" ry="0.84" style="fill:#171719"/></g><g style="opacity:0.30000000000000004;mix-blend-mode:multiply"><path d="M19.08,19.23h7.85a.83.83,0,0,1,.83.83v3.38a.84.84,0,0,1-.84.84H19.08a.84.84,0,0,1-.84-.84V20.06A.84.84,0,0,1,19.08,19.23Z" style="fill:#266ec1;opacity:0"/><path d="M19,19.16h7.85a.84.84,0,0,1,.84.84v3.38a.83.83,0,0,1-.83.83H19a.83.83,0,0,1-.83-.83V20A.84.84,0,0,1,19,19.16Z" style="fill:#2566b2;opacity:0.09090899999999999"/><path d="M19,19.1h7.85a.83.83,0,0,1,.83.83v3.38a.84.84,0,0,1-.84.84H19a.84.84,0,0,1-.84-.84V19.94A.83.83,0,0,1,19,19.1Z" style="fill:#235ea2;opacity:0.18181799999999998"/><path d="M18.94,19h7.85a.83.83,0,0,1,.83.83v3.38a.84.84,0,0,1-.84.84H18.94a.84.84,0,0,1-.84-.84V19.88A.84.84,0,0,1,18.94,19Z" style="fill:#225693;opacity:0.272727"/><path d="M18.89,19h7.85a.83.83,0,0,1,.83.83V23.2a.84.84,0,0,1-.84.84H18.9a.84.84,0,0,1-.84-.84V19.81A.84.84,0,0,1,18.89,19Z" style="fill:#214e84;opacity:0.36363599999999996"/><path d="M18.85,18.92H26.7a.83.83,0,0,1,.83.83v3.38a.84.84,0,0,1-.84.84H18.85a.83.83,0,0,1-.83-.83V19.75A.84.84,0,0,1,18.85,18.92Z" style="fill:#1f4675;opacity:0.454546"/><rect x="17.97" y="18.85" width="9.52" height="5.05" rx="0.84" ry="0.84" style="fill:#1e3f65;opacity:0.545455"/><rect x="17.92" y="18.79" width="9.52" height="5.05" rx="0.84" ry="0.84" style="fill:#1c3756;opacity:0.6363639999999999"/><path d="M18.71,18.73h7.85a.83.83,0,0,1,.83.83v3.38a.83.83,0,0,1-.83.83H18.71a.84.84,0,0,1-.84-.84V19.56A.84.84,0,0,1,18.71,18.73Z" style="fill:#1b2f47;opacity:0.727273"/><path d="M18.66,18.67h7.85a.84.84,0,0,1,.84.84v3.38a.84.84,0,0,1-.84.84H18.66a.83.83,0,0,1-.83-.83V19.5A.84.84,0,0,1,18.66,18.67Z" style="fill:#1a2738;opacity:0.818182"/><path d="M18.62,18.6h7.85a.84.84,0,0,1,.84.84v3.38a.84.84,0,0,1-.84.84H18.62a.83.83,0,0,1-.83-.83V19.44A.84.84,0,0,1,18.62,18.6Z" style="fill:#181f28;opacity:0.909091"/><path d="M18.57,18.54h7.85a.84.84,0,0,1,.84.84v3.38a.84.84,0,0,1-.84.84H18.57a.83.83,0,0,1-.83-.83V19.38A.84.84,0,0,1,18.57,18.54Z" style="fill:#171719"/></g><rect x="17.67" y="18.54" width="9.39" height="5.05" transform="translate(44.73 42.14) rotate(180)" style="fill:#94aace"/><rect x="17.8" y="18.54" width="9.39" height="5.05" transform="translate(45 42.14) rotate(180)" style="fill:#efefef"/><rect x="17.67" y="24.45" width="9.39" height="5.05" transform="translate(44.73 53.95) rotate(180)" style="fill:#94aace"/><rect x="17.8" y="24.45" width="9.39" height="5.05" transform="translate(45 53.95) rotate(180)" style="fill:#efefef"/><polygon points="1.08 3.2 3.68 3.71 9.66 3.62 9.52 3.03 1.08 3.2" style="opacity:0.5;mix-blend-mode:multiply;fill:url(#linear-gradient-5)"/><polygon points="0.11 1.98 0.11 3.76 0 3.91 0 1.88 0.11 1.98" style="fill:#2d3c65"/><polygon points="9.8 57.95 10.35 57.95 10.35 57.7 10.34 57.48 9.11 57.48 9.8 57.95" style="fill:#374965"/><polygon points="9.8 57.95 9.72 58.16 9.03 57.65 9.11 57.48 9.8 57.95" style="fill:#324563"/><polygon points="9.72 58.16 9.72 59.13 9.03 58.52 9.03 57.65 9.72 58.16" style="fill:#172232"/><polygon points="10.58 57.83 10.58 57.95 10.35 57.95 10.35 57.7 10.58 57.83" style="fill:#474747"/><rect x="10.58" y="57.83" width="23.33" height="0.12" style="fill:#5b5b5b"/><polygon points="9.72 58.16 34.98 58.16 34.77 57.95 9.8 57.95 9.72 58.16" style="fill:#4e72a6"/><polygon points="34.77 57.95 33.91 57.49 33.91 57.95 34.77 57.95" style="fill:#374965"/><rect x="9.72" y="58.16" width="25.27" height="0.98" style="fill:#3c4d69"/></g></g></g></svg>