<svg xmlns="http://www.w3.org/2000/svg" xmlns:xlink="http://www.w3.org/1999/xlink" viewBox="0 0 13.33 32.78"><defs><linearGradient id="linear-gradient" x1="4626.14" y1="31.8" x2="4624.47" y2="-0.04" gradientTransform="matrix(-1, 0, 0, 1, 4631.34, 0)" gradientUnits="userSpaceOnUse"><stop offset="0" stop-color="#1d1d1d"/><stop offset="0.01" stop-color="#9e9e9e"/><stop offset="0.05" stop-color="#c2c2c2"/><stop offset="0.48" stop-color="#d4d4d4"/><stop offset="0.71" stop-color="#d4d4d4"/><stop offset="0.77" stop-color="#ebebeb"/><stop offset="0.89" stop-color="#fff"/><stop offset="1" stop-color="#fff"/></linearGradient><linearGradient id="linear-gradient-2" x1="4627" y1="32.05" x2="4623.04" y2="-0.18" gradientTransform="matrix(-1, 0, 0, 1, 4631.34, 0)" gradientUnits="userSpaceOnUse"><stop offset="0" stop-color="#1d1d1d"/><stop offset="0.03" stop-color="#9e9e9e"/><stop offset="0.09" stop-color="#c3c3c3"/><stop offset="0.48" stop-color="#d4d4d4"/><stop offset="0.61" stop-color="#c8c8c8"/><stop offset="0.7" stop-color="#c8c8c8"/><stop offset="0.78" stop-color="#d5d5d5"/><stop offset="0.82" stop-color="#e7e7e7"/><stop offset="0.86" stop-color="#f5f5f5"/><stop offset="0.91" stop-color="#fdfdfd"/><stop offset="1" stop-color="#fff"/></linearGradient></defs><title>s2</title><g id="Layer_2" data-name="Layer 2"><g id="Layer_2-2" data-name="Layer 2"><polygon points="12.9 31.26 10.32 30.85 10.32 32.47 12.82 31.51 12.9 31.39 12.9 31.26" style="fill:#a5a5a5"/><path d="M.17,10.57a11.5,11.5,0,0,1,1-4.86S2.87,1.48,3.25.65A.83.83,0,0,1,4.39.18l8.43.13a.55.55,0,0,1,.47.78L11.57,5.41a10.81,10.81,0,0,0-.8,2.35,18.57,18.57,0,0,0-.4,3.71v5.88H.18C.18,14.25.18,11.58.17,10.57Z" style="fill:#7e7e7e"/><path d="M10.37,17.35v14.2s0,.89,0,1a.62.62,0,0,0,.14.2S.48,31.49.36,31.44s-.17-.52-.17-.52,0-7.57,0-13.57Z" style="fill:#7e7e7e"/><path d="M10.37,32.78l2.52-1a.13.13,0,0,0,.08-.12v-.25a.13.13,0,0,0,0-.1h0a.15.15,0,0,1,0,.09l-2.46,1s-.06,0-.05-.09-.29.09-.29.09l.2.35Z" style="fill:#7e7e7e"/><path d="M0,10.64A11.51,11.51,0,0,1,1,5.78S2.7,1.55,3.08.72A1.15,1.15,0,0,1,4.24,0l8.4.26a.47.47,0,0,1,.45.71l-1.7,4.51a10.86,10.86,0,0,0-.8,2.35,18.56,18.56,0,0,0-.4,3.71v5.88H0C0,14.32,0,11.65,0,10.64Z" style="fill:url(#linear-gradient)"/><path d="M10.19,17.42v14.2s0,.89,0,1a.62.62,0,0,0,.14.2S.31,31.56.19,31.51,0,31,0,31s0-7.57,0-13.57Z" style="fill:url(#linear-gradient-2)"/><polygon points="11.16 2.09 11.29 2.4 10.22 5.07 2.78 4.82 2.67 4.57 11.16 2.09" style="fill:#276dc4"/><polygon points="11.16 2.09 10.11 4.9 2.67 4.57 3.81 1.79 11.16 2.09" style="fill:#4bb5fe"/></g></g></svg>