<svg xmlns="http://www.w3.org/2000/svg" xmlns:xlink="http://www.w3.org/1999/xlink" viewBox="0 0 55.19 10.56"><defs><linearGradient id="linear-gradient" x1="10.19" y1="9.3" x2="44.97" y2="9.3" gradientUnits="userSpaceOnUse"><stop offset="0" stop-color="#24272d"/><stop offset="0.03" stop-color="#292a2c"/><stop offset="0.14" stop-color="#2b2b2b"/><stop offset="0.5" stop-color="#2b2b2b"/><stop offset="0.8" stop-color="#292929"/><stop offset="0.85" stop-color="#272727"/><stop offset="1" stop-color="#1c1e1d"/></linearGradient><linearGradient id="linear-gradient-2" y1="5.47" x2="55.19" y2="5.47" gradientUnits="userSpaceOnUse"><stop offset="0" stop-color="#4f5558"/><stop offset="0.1" stop-color="#7d8083"/><stop offset="0.18" stop-color="#a0a2a4"/><stop offset="0.34" stop-color="#b3b3b3"/><stop offset="0.5" stop-color="#a6a6a6"/><stop offset="0.76" stop-color="#bababa"/><stop offset="0.9" stop-color="#a5a5a5"/><stop offset="1" stop-color="#585756"/></linearGradient><linearGradient id="linear-gradient-3" y1="4.64" x2="55.19" y2="4.64" gradientUnits="userSpaceOnUse"><stop offset="0" stop-color="#585757"/><stop offset="0.09" stop-color="#818180"/><stop offset="0.18" stop-color="#a4a4a3"/><stop offset="0.34" stop-color="#b3b3b3"/><stop offset="0.5" stop-color="#a6a6a6"/><stop offset="0.76" stop-color="#bababa"/><stop offset="0.9" stop-color="#a5a5a5"/><stop offset="1" stop-color="#585858"/></linearGradient><linearGradient id="linear-gradient-4" x1="27.59" y1="8.07" x2="27.59" gradientUnits="userSpaceOnUse"><stop offset="0" stop-color="#b5b5b5"/><stop offset="1" stop-color="#c7c9c9"/></linearGradient><linearGradient id="linear-gradient-5" y1="7.46" x2="55.34" y2="7.46" gradientUnits="userSpaceOnUse"><stop offset="0" stop-color="#7f7d7b"/><stop offset="0.11" stop-color="#dfdfdf"/><stop offset="0.5" stop-color="#ababab"/><stop offset="0.77" stop-color="#cecece"/><stop offset="0.88" stop-color="#dfdfdf"/><stop offset="1" stop-color="#b5b5b5"/></linearGradient><linearGradient id="linear-gradient-6" x1="39.88" y1="8.07" x2="39.88" gradientUnits="userSpaceOnUse"><stop offset="0" stop-color="#fff"/><stop offset="0.6" stop-color="#acafb0"/><stop offset="1" stop-color="#727779"/></linearGradient></defs><title>s3</title><g style="isolation:isolate"><g id="Layer_2" data-name="Layer 2"><g id="Layer_2-2" data-name="Layer 2"><g style="opacity:0.48"><path d="M9,9.19H46.2a0,0,0,0,1,0,0v.12A1.25,1.25,0,0,1,45,10.56H10.34A1.36,1.36,0,0,1,9,9.2v0a0,0,0,0,1,0,0Z" style="fill:#2b2a29"/><path d="M10.19,8.47V9.81s.63.59,4.23.6,27.47,0,27.47,0,2.44,0,3.08-.64V8.18Z" style="fill:url(#linear-gradient)"/><path d="M50.54,1.43,4.61,1.58,0,7.56v.61s0,1,3.13,1.25c2.8.19,21,0,24.46,0s21.66.18,24.46,0c3.1-.21,3.13-1.25,3.13-1.25V7.56Z" style="fill:url(#linear-gradient-2)"/></g><path d="M50.54.61,4.61.76,0,6.73v.61s0,1,3.13,1.25c2.8.19,21,0,24.46,0s21.66.18,24.46,0c3.1-.21,3.13-1.25,3.13-1.25V6.73Z" style="fill:url(#linear-gradient-3)"/><path d="M50.54,0,4.61.15,0,6.73S0,7.77,3.13,8c2.8.19,21,0,24.46,0s21.66.18,24.46,0c3.1-.21,3.13-1.25,3.13-1.25Z" style="fill:url(#linear-gradient-4)"/><path d="M52.06,8c-2.8.19-21,0-24.46,0S5.93,8.15,3.13,8C.52,7.78.08,7,0,6.78v0S0,7.84,3.13,8c2.8.19,21,0,24.46,0s21.66.18,24.46,0c3.1-.21,3.13-1.25,3.13-1.25v0C55.1,7,54.67,7.78,52.06,8Z" style="fill:url(#linear-gradient-5)"/><path d="M50.54,0l-26,.08V8l3,0C31,8,49.26,8.17,52.06,8c3.1-.21,3.13-1.25,3.13-1.25Z" style="opacity:0.13;mix-blend-mode:screen;fill:url(#linear-gradient-6)"/></g></g></g></svg>