<?xml version="1.0" encoding="UTF-8"?>
<svg width="25px" height="24px" viewBox="0 0 25 24" version="1.1" xmlns="http://www.w3.org/2000/svg" xmlns:xlink="http://www.w3.org/1999/xlink">
    <title>Group 10 Copy 10</title>
    <defs>
        <polygon id="path-1" points="0.0115660219 0.562132885 24.3849285 0.562132885 24.3849285 15.7438991 0.0115660219 15.7438991"></polygon>
        <polygon id="path-3" points="0 0.521152071 17.7446637 0.521152071 17.7446637 10.1522422 0 10.1522422"></polygon>
        <polygon id="path-5" points="0.567108851 0.520773759 8.67198532 0.520773759 8.67198532 8.59459313 0.567108851 8.59459313"></polygon>
    </defs>
    <g id="UI" stroke="none" stroke-width="1" fill="none" fill-rule="evenodd">
        <g id="Group-10-Copy-10">
            <g id="Group-3" transform="translate(0.000000, 7.351388)">
                <mask id="mask-2" fill="white">
                    <use xlink:href="#path-1"></use>
                </mask>
                <g id="Clip-2"></g>
                <path d="M24.3849891,12.7488444 L24.3849891,15.7317881 L15.6232733,15.7317881 L15.6232733,15.7438991 L0.0115660219,15.7438991 L0.0115660219,12.8045551 L21.3451236,12.8045551 C21.3620791,12.672545 21.3832733,12.5847401 21.3832733,12.4987519 C21.38509,10.3744794 21.3808511,8.25081245 21.3881177,6.12653995 C21.3887233,5.81952565 21.2803297,5.60394954 21.0253928,5.43318419 C19.9971674,4.74103953 18.9792363,4.0337561 17.9473776,3.3494836 C17.7844844,3.24169554 17.5646695,3.21626241 17.3708932,3.15631287 C17.2982271,3.13451304 17.2092111,3.13875189 17.1504727,3.09817998 C16.6587653,2.77057696 16.172508,2.43510177 15.6638452,2.08691001 C16.0150648,1.57219176 16.3475122,1.0859344 16.7047872,0.562132885 C17.21345,0.906691337 17.8099176,1.14770059 18.1702204,1.58369722 C19.3322725,2.98554752 21.0181262,3.65468124 22.3999933,4.74225063 C22.6331304,4.9263381 22.7336518,5.08862574 22.7312296,5.38534567 C22.7191186,7.62770059 22.7251741,9.87005551 22.7251741,12.1124104 L22.7251741,12.7488444 L24.3849891,12.7488444 Z" id="Fill-1" fill="#1781F1" mask="url(#mask-2)"></path>
            </g>
            <g id="Group-6" transform="translate(0.000000, 9.168040)">
                <mask id="mask-4" fill="white">
                    <use xlink:href="#path-3"></use>
                </mask>
                <g id="Clip-5"></g>
                <path d="M17.7380992,10.1522422 L0.0426913373,10.1522422 C0.0287636669,10.0638318 0.00635828427,9.98934903 0.00635828427,9.91486627 C0.00817493692,8.67590917 -0.0178637511,7.43574096 0.023313709,6.19799495 C0.125651808,3.11331876 2.67623213,0.597254836 5.77241379,0.544571909 C7.85429773,0.509449958 9.93799832,0.517322119 12.0204878,0.54517746 C14.6612952,0.57969386 17.1386039,2.65552229 17.5715728,5.25454668 C17.7362826,6.24704458 17.699344,7.27405887 17.7344659,8.2859344 C17.7550547,8.89087973 17.7380992,9.49703616 17.7380992,10.1522422" id="Fill-4" fill="#1781F1" mask="url(#mask-4)"></path>
            </g>
            <g id="Group-9" transform="translate(4.238856, 0.084777)">
                <mask id="mask-6" fill="white">
                    <use xlink:href="#path-5"></use>
                </mask>
                <g id="Clip-8"></g>
                <path d="M4.62447098,0.520771334 C6.83412616,0.518351556 8.66652313,2.33076535 8.67198532,4.52407065 C8.67742304,6.7870143 6.86137595,8.58852817 4.5699714,8.59459313 C2.38574937,8.59942809 0.546691337,6.74099243 0.567280067,4.54829268 C0.587868797,2.2968545 2.37484945,0.523195963 4.62447098,0.520771334" id="Fill-7" fill="#1781F1" mask="url(#mask-6)"></path>
            </g>
        </g>
    </g>
</svg>