<?xml version="1.0" encoding="UTF-8"?>
<svg width="16px" height="16px" viewBox="0 0 16 16" version="1.1" xmlns="http://www.w3.org/2000/svg" xmlns:xlink="http://www.w3.org/1999/xlink">
    <title>Group 8</title>
    <g id="Symbols" stroke="none" stroke-width="1" fill="none" fill-rule="evenodd">
        <g id="Group-8">
            <rect id="Rectangle-Copy-2" x="0" y="0" width="16" height="16"></rect>
            <path d="M6.32143253,12.5714388 C10.2991158,12.5714388 12.4754577,9.276792 12.4754577,6.4174136 C12.4754577,6.32366348 12.4754577,6.22991337 12.4687613,6.13616326 C12.8906368,5.82812718 13.2589408,5.4464303 13.553584,5.01785836 C13.1651907,5.18526927 12.7433152,5.30580513 12.3080468,5.35268018 C12.7567081,5.08482272 13.0982263,4.66294722 13.2589408,4.16071448 C12.8437617,4.40848263 12.3750112,4.58928642 11.8861713,4.68303653 C11.4910816,4.26116103 10.9285809,4 10.3058123,4 C9.10715014,4 8.14286327,4.9709833 8.14286327,6.16294901 C8.14286327,6.33035992 8.16295258,6.49777083 8.19643477,6.65848531 C6.40178977,6.5647352 4.80134143,5.70759132 3.73660802,4.39508976 C3.5491078,4.71651871 3.44196481,5.08482272 3.44196481,5.48660892 C3.44196481,6.23660981 3.8236617,6.89955703 4.40625168,7.28795035 C4.05134054,7.27455748 3.71651871,7.17411093 3.42857194,7.01339645 L3.42857194,7.0401822 L3.42857194,7.0401822 C3.42857194,8.09152273 4.1718764,8.96205949 5.16294901,9.16295258 C4.98214522,9.20982764 4.78794856,9.23661339 4.5937519,9.23661339 C4.45312673,9.23661339 4.319198,9.22322051 4.18526927,9.2031312 C4.45982317,10.0602751 5.25669912,10.6830437 6.20759311,10.703133 C5.46428865,11.285723 4.53348397,11.6272412 3.52232205,11.6272412 C3.34151826,11.6272412 3.17410735,11.6205448 3,11.6004555 C3.95759043,12.2165277 5.09598464,12.5714388 6.32143253,12.5714388 Z" id="" fill="#1781F1" fill-rule="nonzero"></path>
        </g>
    </g>
</svg>