<?xml version="1.0" encoding="UTF-8"?>
<svg width="30px" height="19px" viewBox="0 0 30 19" version="1.1" xmlns="http://www.w3.org/2000/svg" xmlns:xlink="http://www.w3.org/1999/xlink">
    <title></title>
    <g id="UI" stroke="none" stroke-width="1" fill="none" fill-rule="evenodd">
        <path d="M21.4186667,19 C21.8826667,19 22.2757778,18.848 22.598,18.544 C22.9202222,18.24 23.0813333,17.8726667 23.0813333,17.442 L23.0813333,17.442 L23.0813333,11.856 L29.5,18.164 L29.5,0.798 L23.0813333,7.106 L23.0813333,1.558 C23.0813333,1.12733333 22.9202222,0.76 22.598,0.456 C22.2757778,0.152 21.8826667,0 21.4186667,0 L21.4186667,0 L2.08533333,0 C1.64711111,0 1.27333333,0.152 0.964,0.456 C0.654666667,0.76 0.5,1.12733333 0.5,1.558 L0.5,1.558 L0.5,17.442 C0.5,17.8726667 0.654666667,18.24 0.964,18.544 C1.27333333,18.848 1.64711111,19 2.08533333,19 L2.08533333,19 L21.4186667,19 Z" id="" fill="#1781F1" fill-rule="nonzero"></path>
    </g>
</svg>