<?xml version="1.0" encoding="UTF-8"?>
<svg width="10px" height="10px" viewBox="0 0 10 10" version="1.1" xmlns="http://www.w3.org/2000/svg" xmlns:xlink="http://www.w3.org/1999/xlink">
    <title>Group 24</title>
    <defs>
        <polygon id="path-1" points="0 0 8 0 8 8 0 8"></polygon>
    </defs>
    <g id="UI" stroke="none" stroke-width="1" fill="none" fill-rule="evenodd">
        <g id="Group-24">
            <rect id="Rectangle" x="0" y="0" width="10" height="10"></rect>
            <g id="Group-3" transform="translate(1.000000, 1.000000)">
                <mask id="mask-2" fill="white">
                    <use xlink:href="#path-1"></use>
                </mask>
                <g id="Clip-2"></g>
                <path d="M7.07062601,5.52735202 L6.95969041,5.52735202 L5.59377584,5.52735202 C5.41538372,5.52735202 5.41922011,5.52799163 5.38948809,5.70388445 C5.29885338,6.24115708 5.17177297,6.76803603 4.92272734,7.2579775 C4.91681291,7.26965039 4.91441517,7.2830822 4.90562344,7.30978593 C5.88070582,7.01716423 6.591397,6.4293624 7.07062601,5.52735202 L7.07062601,5.52735202 Z M0.933041938,5.52735202 C1.15970863,5.97411979 1.45479093,6.34301501 1.82740028,6.64890862 C2.20080887,6.95560175 2.6191352,7.17642719 3.0993233,7.30642798 C3.06143896,7.2266366 3.02882964,7.16187606 2.99941732,7.09567639 C2.78985454,6.62108558 2.67508255,6.12027074 2.59643656,5.61050136 C2.58636604,5.54526111 2.56574544,5.52527329 2.49924802,5.5257446 C2.00499315,5.52863124 1.51057843,5.52735202 1.01616371,5.52735202 L0.933041938,5.52735202 Z M4.90610299,0.707249052 C4.9383926,0.774887838 4.97084207,0.838688962 4.99961499,0.904089112 C5.20997702,1.38123837 5.32602781,1.88413194 5.40419425,2.39693947 C5.41394507,2.46010099 5.43600431,2.47721056 5.4975464,2.47689514 C5.99451871,2.47465212 6.49149102,2.47577144 6.98830348,2.47545163 C7.01052257,2.47545163 7.03274166,2.47241349 7.0563994,2.47065456 C6.78641348,1.74085924 5.6068835,0.772969007 4.90610299,0.707249052 L4.90610299,0.707249052 Z M3.08557624,0.707888662 C2.76347936,0.740029078 2.07436786,1.11675953 1.68865085,1.47382196 C1.37998133,1.75956784 1.12677962,2.08656859 0.937517726,2.47097436 C0.960376214,2.4733729 0.970606586,2.47529173 0.980836959,2.47529173 C1.49331468,2.47561154 2.00595225,2.47481202 2.51858982,2.47673393 C2.57501672,2.47705066 2.58700543,2.45242566 2.59435851,2.40429499 C2.65733924,1.9872691 2.74525651,1.57567989 2.89167871,1.17912153 C2.9506632,1.01969867 3.02083717,0.864433275 3.08557624,0.707888662 L3.08557624,0.707888662 Z M4.83960557,5.53374812 L3.16262373,5.53374812 C3.24574551,6.04015955 3.35220532,6.53297926 3.58590539,6.98630304 C3.65512026,7.12030139 3.7516694,7.24406598 3.85349357,7.35631758 C3.94588663,7.45833542 4.04755095,7.45177941 4.14905543,7.3575968 C4.20756037,7.30322993 4.26334787,7.24214714 4.30586786,7.17498807 C4.6220503,6.67561235 4.7355435,6.11035678 4.83960557,5.53374812 L4.83960557,5.53374812 Z M3.16054569,2.46937534 L4.83257219,2.46937534 C4.78413777,2.06146389 4.6252473,1.39802814 4.41088902,1.01010451 C4.34023551,0.881862655 4.25135915,0.760336704 4.15305167,0.651762862 C4.05522373,0.543828629 3.95292001,0.550064829 3.8455011,0.650483641 C3.78923405,0.703571293 3.73552459,0.762735243 3.6942834,0.827815587 C3.3782608,1.3271913 3.26476761,1.89260678 3.16054569,2.46937534 L3.16054569,2.46937534 Z M4.90738179,4.95106317 C4.96348899,4.31353164 4.96476778,3.68351552 4.90674239,3.05413902 L3.09260962,3.05413902 C3.03666227,3.68943192 3.03538348,4.31944803 3.09372857,4.95106317 L4.90738179,4.95106317 Z M7.29233736,4.95042356 C7.46977039,4.31289203 7.47024994,3.68319572 7.29185782,3.0530197 L5.48347963,3.0530197 C5.5349512,3.68703338 5.5349512,4.31704949 5.48347963,4.95042356 L7.29233736,4.95042356 Z M2.51731102,3.05222019 L0.708293443,3.05222019 C0.529901323,3.68687348 0.529901323,4.31816881 0.708293443,4.94962405 L2.51683147,4.94962405 C2.46551976,4.31688959 2.46488036,3.6884725 2.51731102,3.05222019 L2.51731102,3.05222019 Z M3.79706668,0 L4.20340428,0 C4.22594307,0.00399756417 4.24864171,0.0102337643 4.2715002,0.0116728874 C4.60574565,0.0315008056 4.93231832,0.0945024169 5.24898032,0.201477234 C6.09426484,0.487383023 6.77985964,0.992355328 7.28546383,1.72902645 C7.92070602,2.65438261 8.13330595,3.6758402 7.91958708,4.77612976 C7.71849632,5.81101917 7.17612673,6.64027388 6.32221033,7.25334032 C5.49418956,7.84801797 4.56370521,8.08371435 3.5478612,7.97386129 C2.96441027,7.91069978 2.41836414,7.72937027 1.92378957,7.41708055 C0.86526572,6.74884773 0.229543982,5.79614823 0.0428396846,4.55210627 C0.0247766833,4.43153973 0.0139069126,4.31017368 0,4.18896754 L0,3.81399602 C0.010390222,3.71869409 0.0204607449,3.62355206 0.0313305156,3.52856994 C0.0914339538,3.00552864 0.250963824,2.51414806 0.508161782,2.05538759 C0.845764073,1.45335443 1.30820888,0.968849651 1.893578,0.603632189 C2.36481453,0.309731272 2.87585361,0.121366048 3.42637552,0.044293011 C3.54961954,0.0271834363 3.67350296,0.0145511336 3.79706668,0 L3.79706668,0 Z" id="Fill-1" fill="#1781F1" mask="url(#mask-2)"></path>
            </g>
        </g>
    </g>
</svg>