<?xml version="1.0" encoding="UTF-8"?>
<svg width="18px" height="18px" viewBox="0 0 18 18" version="1.1" xmlns="http://www.w3.org/2000/svg" xmlns:xlink="http://www.w3.org/1999/xlink">
    <title></title>
    <g id="UI" stroke="none" stroke-width="1" fill="none" fill-rule="evenodd">
        <g id="Event-Live---expo-single" transform="translate(-968.000000, -431.000000)" fill="#1781F1" fill-rule="nonzero">
            <path d="M977,448.32 C978.52,448.32 979.926667,447.94 981.22,447.18 C982.473333,446.46 983.46,445.473333 984.18,444.22 C984.94,442.926667 985.32,441.52 985.32,440 C985.32,438.48 984.94,437.073333 984.18,435.78 C983.46,434.526667 982.473333,433.54 981.22,432.82 C979.926667,432.06 978.52,431.68 977,431.68 C975.493333,431.68 974.093333,432.06 972.8,432.82 C971.546667,433.553333 970.553333,434.546667 969.82,435.8 C969.06,437.093333 968.68,438.493333 968.68,440 C968.68,441.506667 969.06,442.906667 969.82,444.2 C970.54,445.453333 971.526667,446.446667 972.78,447.18 C974.073333,447.94 975.48,448.32 977,448.32 Z M981.92,444.5 C981.8,444.153333 981.593333,443.87 981.3,443.65 C981.006667,443.43 980.68,443.32 980.32,443.32 L980.32,443.32 L979.5,443.32 L979.5,440.82 C979.5,440.593333 979.42,440.4 979.26,440.24 C979.1,440.08 978.906667,440 978.68,440 L978.68,440 L973.68,440 L973.68,438.32 L975.32,438.32 C975.56,438.32 975.763333,438.24 975.93,438.08 C976.096667,437.92 976.18,437.726667 976.18,437.5 L976.18,437.5 L976.18,435.82 L977.82,435.82 C978.273333,435.82 978.666667,435.66 979,435.34 C979.333333,435.02 979.5,434.633333 979.5,434.18 L979.5,434.18 L979.5,433.82 C980.313333,434.14 981.036667,434.61 981.67,435.23 C982.303333,435.85 982.796667,436.573333 983.15,437.4 C983.503333,438.226667 983.68,439.093333 983.68,440 C983.68,440.853333 983.526667,441.666667 983.22,442.44 C982.913333,443.213333 982.48,443.9 981.92,444.5 Z M976.18,446.6 C975.1,446.466667 974.113333,446.09 973.22,445.47 C972.326667,444.85 971.626667,444.073333 971.12,443.14 C970.586667,442.153333 970.32,441.106667 970.32,440 C970.32,439.52 970.386667,439.026667 970.52,438.52 L970.52,438.52 L974.5,442.5 L974.5,443.32 C974.5,443.773333 974.666667,444.166667 975,444.5 C975.333333,444.833333 975.726667,445 976.18,445 L976.18,445 L976.18,446.6 Z" id=""></path>
        </g>
    </g>
</svg>