<?xml version="1.0" encoding="UTF-8"?>
<svg width="16px" height="18px" viewBox="0 0 16 18" version="1.1" xmlns="http://www.w3.org/2000/svg" xmlns:xlink="http://www.w3.org/1999/xlink">
    <title></title>
    <g id="UI" stroke="none" stroke-width="1" fill="none" fill-rule="evenodd">
        <g id="Events" transform="translate(-253.000000, -813.000000)" fill="#0B0A2C" fill-rule="nonzero">
            <g id="Group-18" transform="translate(81.000000, 812.000000)">
                <path d="M185.82,18.32 C186.273333,18.32 186.666667,18.16 187,17.84 C187.333333,17.52 187.5,17.1333333 187.5,16.68 L187.5,16.68 L187.5,5 C187.5,4.54666667 187.333333,4.15333333 187,3.82 C186.666667,3.48666667 186.273333,3.32 185.82,3.32 L185.82,3.32 L185,3.32 L185,1.68 L183.32,1.68 L183.32,3.32 L176.68,3.32 L176.68,1.68 L175,1.68 L175,3.32 L174.18,3.32 C173.713333,3.32 173.316667,3.48666667 172.99,3.82 C172.663333,4.15333333 172.5,4.54666667 172.5,5 L172.5,5 L172.5,16.68 C172.5,17.1333333 172.663333,17.52 172.99,17.84 C173.316667,18.16 173.713333,18.32 174.18,18.32 L174.18,18.32 L185.82,18.32 Z M185.82,16.68 L174.18,16.68 L174.18,7.5 L185.82,7.5 L185.82,16.68 Z M184.18,10.82 L184.18,9.18 L182.5,9.18 L182.5,10.82 L184.18,10.82 Z M180.82,10.82 L180.82,9.18 L179.18,9.18 L179.18,10.82 L180.82,10.82 Z M177.5,10.82 L177.5,9.18 L175.82,9.18 L175.82,10.82 L177.5,10.82 Z" id=""></path>
            </g>
        </g>
    </g>
</svg>