<?xml version="1.0" encoding="UTF-8"?>
<svg width="16px" height="18px" viewBox="0 0 16 18" version="1.1" xmlns="http://www.w3.org/2000/svg" xmlns:xlink="http://www.w3.org/1999/xlink">
    <title></title>
    <g id="UI" stroke="none" stroke-width="1" fill="none" fill-rule="evenodd">
        <g id="Home" transform="translate(-162.000000, -570.000000)" fill="#FFFFFF" fill-rule="nonzero">
            <g id="Group-5" transform="translate(0.000000, 84.000000)">
                <path d="M175.82,503.32 C176.273333,503.32 176.666667,503.16 177,502.84 C177.333333,502.52 177.5,502.133333 177.5,501.68 L177.5,501.68 L177.5,490 C177.5,489.546667 177.333333,489.153333 177,488.82 C176.666667,488.486667 176.273333,488.32 175.82,488.32 L175.82,488.32 L175,488.32 L175,486.68 L173.32,486.68 L173.32,488.32 L166.68,488.32 L166.68,486.68 L165,486.68 L165,488.32 L164.18,488.32 C163.713333,488.32 163.316667,488.486667 162.99,488.82 C162.663333,489.153333 162.5,489.546667 162.5,490 L162.5,490 L162.5,501.68 C162.5,502.133333 162.663333,502.52 162.99,502.84 C163.316667,503.16 163.713333,503.32 164.18,503.32 L164.18,503.32 L175.82,503.32 Z M175.82,501.68 L164.18,501.68 L164.18,492.5 L175.82,492.5 L175.82,501.68 Z M174.18,495.82 L174.18,494.18 L172.5,494.18 L172.5,495.82 L174.18,495.82 Z M170.82,495.82 L170.82,494.18 L169.18,494.18 L169.18,495.82 L170.82,495.82 Z M167.5,495.82 L167.5,494.18 L165.82,494.18 L165.82,495.82 L167.5,495.82 Z" id=""></path>
            </g>
        </g>
    </g>
</svg>