<?xml version="1.0" encoding="utf-8"?>
<!-- Generator: Adobe Illustrator 21.0.1, SVG Export Plug-In . SVG Version: 6.00 Build 0)  -->
<svg version="1.1" id="Layer_1" xmlns="http://www.w3.org/2000/svg" xmlns:xlink="http://www.w3.org/1999/xlink" x="0px" y="0px"
	 viewBox="0 0 21 21" style="enable-background:new 0 0 21 21;" xml:space="preserve">
<style type="text/css">
	.st0{enable-background:new    ;}
	.st1{fill:#0B0A2C;}
</style>
<title>facebook-square - FontAwesome</title>
<g id="UI">
	<g id="Home" transform="translate(-81.000000, -2736.000000)">
		<g id="Footer" transform="translate(0.000000, 2591.000000)">
			<g id="Group-23" transform="translate(80.000000, 90.000000)">
				<g class="st0">
					<path class="st1" d="M21.8,59.1v12.9c0,2.1-1.7,3.9-3.9,3.9h-2.5v-8h2.7l0.4-3.1h-3.1v-2c0-0.9,0.2-1.5,1.5-1.5l1.6,0v-2.8
						c-0.3,0-1.3-0.1-2.4-0.1c-2.4,0-4,1.4-4,4.1v2.3H9.5v3.1h2.7v8H5.1c-2.1,0-3.9-1.7-3.9-3.9V59.1c0-2.1,1.7-3.9,3.9-3.9h12.9
						C20.1,55.2,21.8,56.9,21.8,59.1z"/>
				</g>
			</g>
		</g>
	</g>
</g>
</svg>
