<?xml version="1.0" encoding="UTF-8"?>
<svg width="18px" height="13px" viewBox="0 0 18 13" version="1.1" xmlns="http://www.w3.org/2000/svg" xmlns:xlink="http://www.w3.org/1999/xlink">
    <title></title>
    <g id="colors" stroke="none" stroke-width="1" fill="none" fill-rule="evenodd">
        <g id="Home-option-4" transform="translate(-582.000000, -1241.000000)" fill="#1781F1" fill-rule="nonzero">
            <g id="Group-15" transform="translate(80.000000, 1222.000000)">
                <g id="Group-10" transform="translate(481.000000, 0.000000)">
                    <g id="Group-7" transform="translate(21.000000, 14.000000)">
                        <path d="M12.984,17.6 C13.272,17.6 13.516,17.504 13.716,17.312 C13.916,17.12 14.016,16.888 14.016,16.616 L14.016,16.616 L14.016,13.088 L18,17.072 L18,6.104 L14.016,10.088 L14.016,6.584 C14.016,6.312 13.916,6.08 13.716,5.888 C13.516,5.696 13.272,5.6 12.984,5.6 L12.984,5.6 L0.984,5.6 C0.712,5.6 0.48,5.696 0.288,5.888 C0.096,6.08 0,6.312 0,6.584 L0,6.584 L0,16.616 C0,16.888 0.096,17.12 0.288,17.312 C0.48,17.504 0.712,17.6 0.984,17.6 L0.984,17.6 L12.984,17.6 Z" id=""></path>
                    </g>
                </g>
            </g>
        </g>
    </g>
</svg>