<?xml version="1.0" encoding="UTF-8"?>
<svg width="24px" height="15px" viewBox="0 0 24 15" version="1.1" xmlns="http://www.w3.org/2000/svg" xmlns:xlink="http://www.w3.org/1999/xlink">
    <title></title>
    <g id="colors" stroke="none" stroke-width="1" fill="none" fill-rule="evenodd">
        <g id="Home-option-4" transform="translate(-763.000000, -1240.000000)" fill="#000" fill-rule="nonzero">
            <g id="Group-15" transform="translate(80.000000, 1222.000000)">
                <g id="Group-10" transform="translate(481.000000, 0.000000)">
                    <g id="Group-11" transform="translate(202.000000, 14.000000)">
                        <path d="M8.016,10.616 C8.544,10.616 9.036,10.48 9.492,10.208 C9.948,9.936 10.308,9.572 10.572,9.116 C10.836,8.66 10.968,8.16 10.968,7.616 C10.968,7.072 10.836,6.572 10.572,6.116 C10.308,5.66 9.948,5.296 9.492,5.024 C9.036,4.752 8.544,4.616 8.016,4.616 C7.488,4.616 6.992,4.752 6.528,5.024 C6.064,5.296 5.696,5.664 5.424,6.128 C5.152,6.592 5.016,7.088 5.016,7.616 C5.016,8.144 5.152,8.64 5.424,9.104 C5.696,9.568 6.064,9.936 6.528,10.208 C6.992,10.48 7.488,10.616 8.016,10.616 Z M15.984,10.616 C16.512,10.616 17.008,10.48 17.472,10.208 C17.936,9.936 18.304,9.568 18.576,9.104 C18.848,8.64 18.984,8.144 18.984,7.616 C18.984,7.088 18.848,6.592 18.576,6.128 C18.304,5.664 17.936,5.296 17.472,5.024 C17.008,4.752 16.512,4.616 15.984,4.616 C15.456,4.616 14.96,4.752 14.496,5.024 C14.032,5.296 13.664,5.664 13.392,6.128 C13.12,6.592 12.984,7.088 12.984,7.616 C12.984,8.144 13.12,8.64 13.392,9.104 C13.664,9.568 14.032,9.936 14.496,10.208 C14.96,10.48 15.456,10.616 15.984,10.616 Z M23.016,18.584 L23.016,16.088 C23.016,15.368 22.584,14.72 21.72,14.144 C20.984,13.664 20.032,13.272 18.864,12.968 C17.808,12.712 16.848,12.584 15.984,12.584 C15.584,12.584 15.272,12.6 15.048,12.632 C16.36,13.576 17.016,14.728 17.016,16.088 L17.016,16.088 L17.016,18.584 L23.016,18.584 Z M15,18.584 L15,16.088 C15,15.368 14.568,14.72 13.704,14.144 C12.984,13.664 12.04,13.272 10.872,12.968 C9.832,12.712 8.88,12.584 8.016,12.584 C7.152,12.584 6.192,12.712 5.136,12.968 C3.968,13.272 3.016,13.664 2.28,14.144 C1.416,14.72 0.984,15.368 0.984,16.088 L0.984,16.088 L0.984,18.584 L15,18.584 Z" id=""></path>
                    </g>
                </g>
            </g>
        </g>
    </g>
</svg>