<?xml version="1.0" encoding="UTF-8"?>
<svg width="18px" height="17px" viewBox="0 0 18 17" version="1.1" xmlns="http://www.w3.org/2000/svg" xmlns:xlink="http://www.w3.org/1999/xlink">
    <title></title>
    <g id="colors" stroke="none" stroke-width="1" fill="none" fill-rule="evenodd">
        <g id="Home-option-4" transform="translate(-953.000000, -1239.000000)" fill="#000" fill-rule="nonzero">
            <g id="Group-15" transform="translate(80.000000, 1222.000000)">
                <g id="Group-10" transform="translate(481.000000, 0.000000)">
                    <g id="Group-11-Copy" transform="translate(392.000000, 14.000000)">
                        <path d="M17.016,5.6 L17.016,3.584 L0.984,3.584 L0.984,5.6 L17.016,5.6 Z M11.016,19.616 L11.016,13.616 L15,13.616 L15,19.616 L17.016,19.616 L17.016,13.616 L18,13.616 L18,11.6 L17.016,6.584 L0.984,6.584 L0,11.6 L0,13.616 L0.984,13.616 L0.984,19.616 L11.016,19.616 Z M9,17.6 L3,17.6 L3,13.616 L9,13.616 L9,17.6 Z" id=""></path>
                    </g>
                </g>
            </g>
        </g>
    </g>
</svg>