<?xml version="1.0" encoding="UTF-8"?>
<svg width="24px" height="19px" viewBox="0 0 24 19" version="1.1" xmlns="http://www.w3.org/2000/svg" xmlns:xlink="http://www.w3.org/1999/xlink">
    <title></title>
    <g id="colors" stroke="none" stroke-width="1" fill="none" fill-rule="evenodd">
        <g id="Home-option-4" transform="translate(-1151.000000, -1238.000000)" fill="#000" fill-rule="nonzero">
            <g id="Group-15" transform="translate(80.000000, 1222.000000)">
                <g id="Group-10" transform="translate(481.000000, 0.000000)">
                    <g id="Group-11-Copy-2" transform="translate(590.000000, 14.000000)">
                        <path d="M21,20.6 C21.544,20.6 22.016,20.4 22.416,20 C22.816,19.6 23.016,19.128 23.016,18.584 L23.016,18.584 L23.016,4.616 C23.016,4.072 22.816,3.6 22.416,3.2 C22.016,2.8 21.544,2.6 21,2.6 L21,2.6 L3,2.6 C2.456,2.6 1.984,2.8 1.584,3.2 C1.184,3.6 0.984,4.072 0.984,4.616 L0.984,4.616 L0.984,18.584 C0.984,19.128 1.184,19.6 1.584,20 C1.984,20.4 2.456,20.6 3,20.6 L3,20.6 L21,20.6 Z M21,18.584 L12,18.584 L12,12.584 L21,12.584 L21,18.584 Z" id=""></path>
                    </g>
                </g>
            </g>
        </g>
    </g>
</svg>