<?xml version="1.0" encoding="utf-8"?>
<!-- Generator: Adobe Illustrator 21.0.1, SVG Export Plug-In . SVG Version: 6.00 Build 0)  -->
<svg version="1.1" id="Layer_1" xmlns="http://www.w3.org/2000/svg" xmlns:xlink="http://www.w3.org/1999/xlink" x="0px" y="0px"
	 viewBox="0 0 21 21" style="enable-background:new 0 0 21 21;" xml:space="preserve">
<style type="text/css">
	.st0{enable-background:new    ;}
	.st1{fill:#0B0A2C;}
</style>
<title>linkedin-square - FontAwesome</title>
<g id="UI">
	<g id="Home" transform="translate(-151.000000, -2736.000000)">
		<g id="Footer" transform="translate(0.000000, 2591.000000)">
			<g id="Group-23" transform="translate(80.000000, 90.000000)">
				<g class="st0">
					<path class="st1" d="M91.8,71.9c0,2.1-1.7,3.9-3.9,3.9H75.1c-2.1,0-3.9-1.7-3.9-3.9V59.1c0-2.1,1.7-3.9,3.9-3.9h12.9
						c2.1,0,3.9,1.7,3.9,3.9V71.9z M76,58.7c-1.1,0-1.8,0.7-1.8,1.6c0,0.9,0.7,1.6,1.7,1.6h0c1.1,0,1.8-0.7,1.8-1.6
						C77.7,59.4,77,58.7,76,58.7z M77.5,72.4v-9.3h-3.1v9.3H77.5z M88.6,72.4v-5.3c0-2.9-1.5-4.2-3.6-4.2c-1.7,0-2.4,0.9-2.8,1.6h0
						v-1.4h-3.1c0,0,0,0.9,0,9.3h3.1v-5.2c0-0.3,0-0.5,0.1-0.7c0.2-0.5,0.7-1.1,1.6-1.1c1.1,0,1.6,0.8,1.6,2.1v5H88.6z"/>
				</g>
			</g>
		</g>
	</g>
</g>
</svg>
