<?xml version="1.0" encoding="UTF-8"?>
<svg width="122px" height="33px" viewBox="0 0 122 33" version="1.1" xmlns="http://www.w3.org/2000/svg" xmlns:xlink="http://www.w3.org/1999/xlink">
    <title>Group 2</title>
    <g id="UI" stroke="none" stroke-width="1" fill="none" fill-rule="evenodd">
        <g id="Home" transform="translate(-80.000000, -27.000000)">
            <g id="Group-2" transform="translate(80.000000, 27.000000)">
                <text id="Reform" font-family="PlusJakartaDisplay-Medium, Plus Jakarta Display" font-size="24" font-weight="400" fill="#0B0A2C">
                    <tspan x="38" y="26">Reform</tspan>
                </text>
                <g id="5ef3f106ee7265c6d9447e63_logo-academy-template" transform="translate(0.000000, 2.000000)">
                    <path d="M15.5,31 C24.0603765,31 31,24.0603765 31,15.5 C31,6.93958706 24.0603765,0 15.5,0 C6.93958706,0 0,6.93958706 0,15.5 C0,24.0603765 6.93958706,31 15.5,31 Z" id="Path" fill="#1781F1" fill-rule="nonzero"></path>
                    <path d="M14.448496,7.55155674 C15.1838347,8.28696573 15.1838347,9.47929332 14.448496,10.2147201 L10.2147148,14.4484967 C9.47928718,15.1838344 8.28696716,15.1838344 7.55155736,14.4484967 C6.81614755,13.7130699 6.81614755,12.5207601 7.55155736,11.7853333 L11.7853297,7.55155674 C12.5207573,6.81614775 13.7130684,6.81614775 14.448496,7.55155674 Z" id="Path" fill="#FFFFFF"></path>
                    <path d="M22.4486346,8.55135112 C23.1837885,9.28652152 23.1837885,10.4783868 22.4486346,11.2135394 L11.2135184,22.4486355 C10.4783645,23.1837882 9.28649712,23.1837882 8.5513521,22.4486355 C7.81621597,21.7134829 7.81621597,20.5216176 8.5513521,19.786465 L19.7864593,8.55135112 C20.5216132,7.81621629 21.7134806,7.81621629 22.4486346,8.55135112 Z" id="Path" fill="#FFFFFF"></path>
                    <path d="M23.44846,16.5514718 C24.1838467,17.2868564 24.1838467,18.4790979 23.44846,19.2144826 L19.2145582,23.4484615 C18.4791715,24.1838462 17.2869267,24.1838462 16.55154,23.4484615 C15.8161533,22.7130768 15.8161533,21.5208354 16.55154,20.7854507 L20.7855308,16.5514718 C21.5208285,15.8161761 22.7131623,15.8161761 23.44846,16.5514718 Z" id="Path" fill="#FFFFFF"></path>
                </g>
            </g>
        </g>
    </g>
</svg>