<svg xmlns="http://www.w3.org/2000/svg" xmlns:xlink="http://www.w3.org/1999/xlink" viewBox="0 0 800 119.18"><defs><radialGradient id="_ÂÁ_Ï_ÌÌ_È_ËÂÌÚ_129" cx="395.1" cy="17.75" r="247.8" gradientTransform="translate(-51.56) scale(1.14 1)" gradientUnits="userSpaceOnUse"><stop offset="0" stop-color="#009da6"/><stop offset="1" stop-color="#1e4365"/></radialGradient><linearGradient id="_ÂÁ_Ï_ÌÌ_È_ËÂÌÚ_41" x1="400" y1="117.5" x2="400" y2="35.5" gradientUnits="userSpaceOnUse"><stop offset="0" stop-color="#04092e"/><stop offset="1" stop-color="#14204d"/></linearGradient><linearGradient id="_ÂÁ_Ï_ÌÌ_È_ËÂÌÚ_285" x1="38.34" y1="79.27" x2="39.9" y2="79.27" gradientTransform="translate(0.58 -0.28) rotate(0.42)" gradientUnits="userSpaceOnUse"><stop offset="0" stop-color="#005f79"/><stop offset="1" stop-color="#002265"/></linearGradient><linearGradient id="_ÂÁ_Ï_ÌÌ_È_ËÂÌÚ_285-2" x1="595.77" y1="79.59" x2="600.64" y2="79.59" gradientTransform="translate(4.84 -30.4) rotate(2.92)" xlink:href="#_ÂÁ_Ï_ÌÌ_È_ËÂÌÚ_285"/><linearGradient id="_ÂÁ_Ï_ÌÌ_È_ËÂÌÚ_285-3" x1="441.51" y1="80.34" x2="442.51" y2="80.34" gradientTransform="matrix(1, 0, 0, 1, 0, 0)" xlink:href="#_ÂÁ_Ï_ÌÌ_È_ËÂÌÚ_285"/><linearGradient id="_ÂÁ_Ï_ÌÌ_È_ËÂÌÚ_285-4" x1="740.84" y1="79.73" x2="741.84" y2="79.73" gradientTransform="matrix(1, 0, 0, 1, 0, 0)" xlink:href="#_ÂÁ_Ï_ÌÌ_È_ËÂÌÚ_285"/><linearGradient id="_ÂÁ_Ï_ÌÌ_È_ËÂÌÚ_285-5" x1="300.86" y1="79.43" x2="307.3" y2="79.43" gradientTransform="translate(6.44 -21.49) rotate(4.09)" xlink:href="#_ÂÁ_Ï_ÌÌ_È_ËÂÌÚ_285"/></defs><title>stage</title><g id="Layer_2" data-name="Layer 2"><g id="interior"><polygon points="63.16 2.83 0 26.5 0 35.5 800 35.5 800 28.96 738.06 0 63.16 2.83" style="fill:url(#_ÂÁ_Ï_ÌÌ_È_ËÂÌÚ_129)"/><rect y="35.5" width="800" height="82" style="fill:url(#_ÂÁ_Ï_ÌÌ_È_ËÂÌÚ_41)"/><rect x="38.62" y="41.04" width="1" height="76.46" transform="translate(-0.58 0.29) rotate(-0.42)" style="fill:url(#_ÂÁ_Ï_ÌÌ_È_ËÂÌÚ_285)"/><rect x="597.71" y="41.63" width="1" height="75.91" transform="translate(-3.28 30.61) rotate(-2.92)" style="fill:url(#_ÂÁ_Ï_ÌÌ_È_ËÂÌÚ_285-2)"/><rect x="441.51" y="41.5" width="1" height="77.68" style="fill:url(#_ÂÁ_Ï_ÌÌ_È_ËÂÌÚ_285-3)"/><rect x="740.84" y="41.95" width="1" height="75.54" style="fill:url(#_ÂÁ_Ï_ÌÌ_È_ËÂÌÚ_285-4)"/><rect x="303.58" y="41.26" width="1" height="76.33" transform="translate(-4.89 21.89) rotate(-4.09)" style="fill:url(#_ÂÁ_Ï_ÌÌ_È_ËÂÌÚ_285-5)"/></g></g></svg>