<svg xmlns="http://www.w3.org/2000/svg" xmlns:xlink="http://www.w3.org/1999/xlink" viewBox="0 0 63.64 153.78"><defs><linearGradient id="linear-gradient" x1="3747.8" y1="150.38" x2="3754.23" y2="145.87" gradientTransform="matrix(-1, 0.01, 0.01, 1, 3810.8, -28.92)" gradientUnits="userSpaceOnUse"><stop offset="0" stop-color="#151517"/><stop offset="0.17" stop-color="#322f31"/><stop offset="0.32" stop-color="#474244"/><stop offset="0.42" stop-color="#4e494b"/><stop offset="0.46" stop-color="#494446"/><stop offset="0.65" stop-color="#332e30"/><stop offset="0.84" stop-color="#252022"/><stop offset="1" stop-color="#201b1d"/></linearGradient><linearGradient id="linear-gradient-2" x1="3749.17" y1="152.7" x2="3750.81" y2="143.41" gradientTransform="matrix(-1, 0.01, 0.01, 1, 3810.8, -28.92)" gradientUnits="userSpaceOnUse"><stop offset="0" stop-color="#787678"/><stop offset="0.15" stop-color="#7c7b7c"/><stop offset="0.31" stop-color="#8a8889"/><stop offset="0.48" stop-color="#9f9e9e"/><stop offset="0.65" stop-color="#bebcbb"/><stop offset="0.75" stop-color="#d3d2cf"/><stop offset="1" stop-color="#3d3431"/></linearGradient><linearGradient id="linear-gradient-3" x1="3776.51" y1="4.35" x2="3776.46" y2="1.53" gradientTransform="matrix(-1.01, 0.05, 0.05, 1, 3827.97, -173.41)" gradientUnits="userSpaceOnUse"><stop offset="0" stop-color="#84837e"/><stop offset="1" stop-color="#a2a3a3"/></linearGradient><linearGradient id="linear-gradient-4" x1="1.69" y1="149.02" x2="62.47" y2="149.02" gradientUnits="userSpaceOnUse"><stop offset="0" stop-color="#404d6a"/><stop offset="0.02" stop-color="#47597a"/><stop offset="0.04" stop-color="#4b5f80"/><stop offset="0.07" stop-color="#506687"/><stop offset="0.15" stop-color="#526889"/><stop offset="0.51" stop-color="#526889"/><stop offset="0.72" stop-color="#506687"/><stop offset="0.84" stop-color="#4b5f7e"/><stop offset="0.93" stop-color="#425470"/><stop offset="0.94" stop-color="#41536f"/><stop offset="0.98" stop-color="#3e4e68"/><stop offset="1" stop-color="#3c4a64"/></linearGradient><linearGradient id="linear-gradient-6" x1="4.79" y1="145.7" x2="59.25" y2="145.7" xlink:href="#linear-gradient-4"/><linearGradient id="linear-gradient-7" x1="4.79" y1="145.78" x2="59.25" y2="145.78" xlink:href="#linear-gradient-4"/><linearGradient id="linear-gradient-8" x1="4.79" y1="145.85" x2="59.26" y2="145.85" xlink:href="#linear-gradient-4"/><linearGradient id="linear-gradient-9" x1="4.8" y1="145.93" x2="59.26" y2="145.93" xlink:href="#linear-gradient-4"/><linearGradient id="linear-gradient-10" x1="4.8" y1="146.01" x2="59.27" y2="146.01" xlink:href="#linear-gradient-4"/><linearGradient id="linear-gradient-11" x1="4.81" y1="146.08" x2="59.27" y2="146.08" xlink:href="#linear-gradient-4"/><linearGradient id="linear-gradient-12" x1="4.81" y1="146.16" x2="59.27" y2="146.16" xlink:href="#linear-gradient-4"/><linearGradient id="linear-gradient-13" x1="4.82" y1="146.23" x2="59.28" y2="146.23" xlink:href="#linear-gradient-4"/><linearGradient id="linear-gradient-14" x1="4.82" y1="146.31" x2="59.28" y2="146.31" xlink:href="#linear-gradient-4"/><linearGradient id="linear-gradient-15" x1="4.82" y1="146.38" x2="59.29" y2="146.38" xlink:href="#linear-gradient-4"/><linearGradient id="linear-gradient-16" x1="4.83" y1="146.46" x2="59.29" y2="146.46" xlink:href="#linear-gradient-4"/><linearGradient id="linear-gradient-17" x1="4.83" y1="146.53" x2="59.3" y2="146.53" xlink:href="#linear-gradient-4"/><linearGradient id="linear-gradient-18" x1="4.84" y1="146.61" x2="59.3" y2="146.61" xlink:href="#linear-gradient-4"/><linearGradient id="linear-gradient-19" x1="4.84" y1="146.68" x2="59.3" y2="146.68" xlink:href="#linear-gradient-4"/><linearGradient id="linear-gradient-20" x1="4.85" y1="146.76" x2="59.31" y2="146.76" xlink:href="#linear-gradient-4"/><linearGradient id="linear-gradient-21" x1="4.85" y1="146.83" x2="59.31" y2="146.83" xlink:href="#linear-gradient-4"/><linearGradient id="linear-gradient-22" x1="4.86" y1="146.91" x2="59.32" y2="146.91" xlink:href="#linear-gradient-4"/><linearGradient id="linear-gradient-23" x1="15.81" y1="146.98" x2="62.34" y2="146.98" xlink:href="#linear-gradient-4"/><linearGradient id="linear-gradient-24" x1="1.69" y1="146.27" x2="6.74" y2="146.27" xlink:href="#linear-gradient-4"/><linearGradient id="linear-gradient-25" x1="4.27" y1="74.05" x2="59.71" y2="74.05" gradientUnits="userSpaceOnUse"><stop offset="0.89" stop-color="#fff"/><stop offset="0.94" stop-color="#fdfdfd"/><stop offset="0.96" stop-color="#f7f6f6"/><stop offset="0.98" stop-color="#ebebea"/><stop offset="0.99" stop-color="#dbdad9"/><stop offset="1" stop-color="#c7c6c5"/></linearGradient><linearGradient id="linear-gradient-26" x1="3808.62" y1="153.73" x2="3810.15" y2="145.06" xlink:href="#linear-gradient-2"/></defs><title>stall-standee</title><g style="isolation:isolate"><g id="Layer_2" data-name="Layer 2"><g id="Layer_2-2" data-name="Layer 2"><path d="M62.64,152.22,59,149.92l0-5.59s.12-1.15.53-1.06l3,1.68L63,148.7Z" style="fill:url(#linear-gradient)"/><path d="M63.64,152.08l-1,.14,0-5.4s.09-1.45-.58-1.95c-.45-.33-2.57-1.61-2.57-1.61h1.12l2.29,1.31a1.33,1.33,0,0,1,.53.63,2.12,2.12,0,0,1,.14.77C63.52,146.62,63.64,152.08,63.64,152.08Z" style="fill:url(#linear-gradient-2)"/><polygon points="4.33 3.83 59.78 2.38 59.67 0 4.2 1.12 4.33 3.83" style="fill:url(#linear-gradient-3)"/><path d="M4.83,145.75l53.93-1.33,1,0a1.29,1.29,0,0,1,.33.06s.35.14,1.35.62a2.16,2.16,0,0,1,1.08,1.68l-.21,4.77-58.92,2L1.69,146Z" style="fill:url(#linear-gradient-4)"/><path d="M4.83,145.75l53.93-1.33,1,0a1.29,1.29,0,0,1,.33.06s.35.14,1.35.62a2.16,2.16,0,0,1,1.08,1.68l-.21,4.77-58.92,2L1.69,146Z" style="opacity:0.15;mix-blend-mode:lighten;fill:url(#linear-gradient-4)"/><polygon points="59.25 144.8 59.24 144.91 4.81 146.61 4.79 146.5 59.25 144.8" style="fill:url(#linear-gradient-6)"/><polygon points="59.25 144.88 59.25 144.98 4.81 146.68 4.79 146.58 59.25 144.88" style="opacity:0.95625;fill:url(#linear-gradient-7)"/><polygon points="59.26 144.95 59.25 145.06 4.82 146.76 4.79 146.65 59.26 144.95" style="opacity:0.9125;fill:url(#linear-gradient-8)"/><polygon points="59.26 145.03 59.26 145.13 4.82 146.83 4.8 146.73 59.26 145.03" style="opacity:0.86875;fill:url(#linear-gradient-9)"/><polygon points="59.27 145.1 59.26 145.21 4.83 146.91 4.8 146.8 59.27 145.1" style="opacity:0.825;fill:url(#linear-gradient-10)"/><polygon points="59.27 145.18 59.26 145.28 4.83 146.99 4.81 146.88 59.27 145.18" style="opacity:0.78125;fill:url(#linear-gradient-11)"/><polygon points="59.27 145.25 59.27 145.36 4.84 147.06 4.81 146.95 59.27 145.25" style="opacity:0.7375;fill:url(#linear-gradient-12)"/><polygon points="59.28 145.33 59.27 145.44 4.84 147.13 4.82 147.03 59.28 145.33" style="opacity:0.6937500000000001;fill:url(#linear-gradient-13)"/><polygon points="59.28 145.4 59.28 145.51 4.84 147.21 4.82 147.1 59.28 145.4" style="opacity:0.65;fill:url(#linear-gradient-14)"/><polygon points="59.29 145.48 59.28 145.59 4.85 147.28 4.83 147.18 59.29 145.48" style="opacity:0.60625;fill:url(#linear-gradient-15)"/><polygon points="59.29 145.55 59.28 145.66 4.85 147.36 4.83 147.25 59.29 145.55" style="opacity:0.5625;fill:url(#linear-gradient-16)"/><polygon points="59.3 145.63 59.29 145.74 4.86 147.44 4.83 147.33 59.3 145.63" style="opacity:0.51875;fill:url(#linear-gradient-17)"/><polygon points="59.3 145.7 59.29 145.81 4.86 147.51 4.84 147.4 59.3 145.7" style="opacity:0.47500000000000003;fill:url(#linear-gradient-18)"/><polygon points="59.3 145.78 59.3 145.89 4.87 147.59 4.84 147.48 59.3 145.78" style="opacity:0.43125;fill:url(#linear-gradient-19)"/><polygon points="59.31 145.85 59.3 145.96 4.87 147.66 4.85 147.55 59.31 145.85" style="opacity:0.38750000000000007;fill:url(#linear-gradient-20)"/><polygon points="59.31 145.93 59.31 146.04 4.88 147.74 4.85 147.63 59.31 145.93" style="opacity:0.34375000000000006;fill:url(#linear-gradient-21)"/><polygon points="59.32 146 59.31 146.11 4.88 147.81 4.86 147.7 59.32 146" style="opacity:0.30000000000000004;fill:url(#linear-gradient-22)"/><polygon points="62.28 146.22 62.34 146.49 15.81 147.74 62.28 146.22" style="fill:url(#linear-gradient-23)"/><polygon points="1.69 145.97 4.83 145.75 6.74 145.7 4.92 146.58 1.88 146.84 1.69 145.97" style="opacity:0.5;mix-blend-mode:multiply;fill:url(#linear-gradient-24)"/><polygon points="59.71 1.51 59.25 144.79 4.92 146.58 4.27 2.37 59.71 1.51" style="fill:url(#linear-gradient-25)"/><path d="M2.78,153.78,0,151.93l0-5.59s.12-1.15.53-1.06l2,1.22.59,3.75Z" style="fill:#282828"/><path d="M3.79,153.64l-1,.14,0-5.4s.09-1.45-.58-1.95c-.45-.33-1.63-1.16-1.63-1.16H1.65l1.35.86a1.32,1.32,0,0,1,.53.63,2.1,2.1,0,0,1,.14.77C3.66,148.18,3.79,153.64,3.79,153.64Z" style="fill:url(#linear-gradient-26)"/></g></g></g></svg>