<svg xmlns="http://www.w3.org/2000/svg" xmlns:xlink="http://www.w3.org/1999/xlink" viewBox="0 0 124.58 66.47"><defs><linearGradient id="linear-gradient" x1="1.05" y1="12.49" x2="123.63" y2="-4.74" gradientUnits="userSpaceOnUse"><stop offset="0" stop-color="#4c4e53"/><stop offset="0.07" stop-color="#292a26"/><stop offset="0.21" stop-color="#322f2c"/><stop offset="0.51" stop-color="#353535"/><stop offset="1" stop-color="#2c292a"/></linearGradient><linearGradient id="linear-gradient-2" x1="8.87" y1="63.03" x2="115.9" y2="63.03" gradientUnits="userSpaceOnUse"><stop offset="0" stop-color="#4c4e53"/><stop offset="0.01" stop-color="#494b4f"/><stop offset="0.02" stop-color="#3b3c3e"/><stop offset="0.04" stop-color="#323233"/><stop offset="0.06" stop-color="#2d2c2c"/><stop offset="0.14" stop-color="#2b2a2a"/><stop offset="0.5" stop-color="#2b2b2b"/><stop offset="0.8" stop-color="#292929"/><stop offset="0.85" stop-color="#272727"/><stop offset="1" stop-color="#1c1e1d"/></linearGradient><linearGradient id="linear-gradient-3" x1="5.14" y1="33.54" x2="119.68" y2="33.54" gradientUnits="userSpaceOnUse"><stop offset="0.89" stop-color="#fff"/><stop offset="0.94" stop-color="#fdfdfd"/><stop offset="0.96" stop-color="#f7f6f6"/><stop offset="0.98" stop-color="#ebebea"/><stop offset="0.99" stop-color="#dbdad9"/><stop offset="1" stop-color="#c7c6c5"/></linearGradient><clipPath id="clip-path"><path d="M0,2.25V5s-.06.75,5.41,1.11,23.74.41,23.74.41H93l24.41-.22a48.87,48.87,0,0,0,5.66-.66c1.51-.39,1.53-.58,1.53-.58V2Z" style="fill:url(#linear-gradient)"/></clipPath><linearGradient id="linear-gradient-5" x1="1.15" y1="10.22" x2="123.35" y2="-6.95" gradientUnits="userSpaceOnUse"><stop offset="0" stop-color="#34434c"/><stop offset="0.51" stop-color="#9d9394"/><stop offset="1" stop-color="#363532"/></linearGradient></defs><title>stall-table</title><g style="isolation:isolate"><g id="Layer_2" data-name="Layer 2"><g id="Layer_2-2" data-name="Layer 2"><path d="M8.87,60.49V64.6s1.94,1.81,13,1.85,84.54,0,84.54,0,7.51-.11,9.47-2V59.58Z" style="fill:url(#linear-gradient-2)"/><path d="M5.14,6.31V59.08s.43,2.13,12.49,2.22,89.71.09,89.71.09,10.31,0,12.34-2.07V5.7Z" style="fill:url(#linear-gradient-3)"/><path d="M5.14,6.31V59.08s.43,2.13,12.49,2.22,89.71.09,89.71.09,10.31,0,12.34-2.07V5.7Z" style="fill:none;opacity:0.2;mix-blend-mode:multiply"/><path d="M0,2.48V5.27S-.06,6,5.41,6.38s23.74.41,23.74.41H93l24.41-.22a49.12,49.12,0,0,0,5.66-.66c1.51-.39,1.53-.58,1.53-.58V2.24Z" style="fill:#1b1714"/><path d="M0,2.25V5s-.06.75,5.41,1.11,23.74.41,23.74.41H93l24.41-.22a48.87,48.87,0,0,0,5.66-.66c1.51-.39,1.53-.58,1.53-.58V2Z" style="fill:url(#linear-gradient)"/><g style="clip-path:url(#clip-path)"><rect x="4" y="2.56" width="0.33" height="3.97" style="fill:#151e1b"/><rect x="6.93" y="2.74" width="0.75" height="3.97" style="fill:#222b28"/><rect x="6.18" y="2.74" width="0.75" height="3.97" style="fill:#2f3331"/><rect x="121.27" y="2.17" width="1.44" height="3.97" style="fill:#433f40"/><rect x="119.83" y="2.3" width="1.44" height="3.97" style="fill:#2c2c2c"/><rect x="122.71" y="2.09" width="1.44" height="3.97" style="fill:#262528"/><rect x="7.67" y="2.74" width="0.75" height="3.97" style="fill:#2f3332"/></g><path d="M1.9.5l-1.48,1L0,2C0,2.77,2.1,3,6.05,3.13s16.13.3,16.13.3l82.92.09s10-.14,12.18-.31,5.57-.32,6.41-.68a4.05,4.05,0,0,0,.72-.38.41.41,0,0,0,.1-.58l-.1-.14L122.78.5Z" style="fill:url(#linear-gradient-5)"/><path d="M1.9,0,.55,1.38l-.18.18c0,.76,1.73.9,5.68,1.07s16.13.3,16.13.3L105.1,3s10-.14,12.18-.3A44.52,44.52,0,0,0,123.68,2c.85-.34.71-.64.71-.64L122.78,0Z" style="fill:#979898"/></g></g></g></svg>