<?xml version="1.0" encoding="utf-8"?>
<!-- Generator: Adobe Illustrator 21.0.1, SVG Export Plug-In . SVG Version: 6.00 Build 0)  -->
<svg version="1.1" id="Layer_1" xmlns="http://www.w3.org/2000/svg" xmlns:xlink="http://www.w3.org/1999/xlink" x="0px" y="0px"
	 viewBox="0 0 21 21" style="enable-background:new 0 0 21 21;" xml:space="preserve">
<style type="text/css">
	.st0{enable-background:new    ;}
	.st1{fill:#0B0A2C;}
</style>
<title>twitter-square - FontAwesome</title>
<g id="UI">
	<g id="Home" transform="translate(-116.000000, -2736.000000)">
		<g id="Footer" transform="translate(0.000000, 2591.000000)">
			<g id="Group-23" transform="translate(80.000000, 90.000000)">
				<g class="st0">
					<path class="st1" d="M56.8,71.9c0,2.1-1.7,3.9-3.9,3.9H40.1c-2.1,0-3.9-1.7-3.9-3.9V59.1c0-2.1,1.7-3.9,3.9-3.9h12.9
						c2.1,0,3.9,1.7,3.9,3.9V71.9z M51.7,62.1c0.6-0.3,1-0.9,1.2-1.6c-0.5,0.3-1.2,0.6-1.8,0.7c-0.5-0.5-1.2-0.9-2.1-0.9
						c-1.6,0-2.8,1.3-2.8,2.8c0,0.2,0,0.4,0.1,0.6c-2.3-0.1-4.4-1.2-5.8-2.9c-0.2,0.4-0.4,0.9-0.4,1.4c0,1,0.5,1.8,1.2,2.3
						c-0.5,0-0.9-0.1-1.3-0.3c0,0,0,0,0,0c0,1.4,1,2.5,2.3,2.8c-0.2,0.1-0.4,0.1-0.7,0.1c-0.2,0-0.3,0-0.5-0.1
						c0.4,1.1,1.4,1.9,2.6,2c-1,0.8-2.2,1.2-3.5,1.2c-0.2,0-0.5,0-0.7,0c1.2,0.8,2.7,1.3,4.3,1.3c5.2,0,8-4.3,8-8c0-0.1,0-0.2,0-0.4
						c0.5-0.4,1-0.9,1.4-1.5C52.8,61.9,52.3,62,51.7,62.1z"/>
				</g>
			</g>
		</g>
	</g>
</g>
</svg>
