<?xml version="1.0" encoding="utf-8"?>
<!-- Generator: Adobe Illustrator 21.0.1, SVG Export Plug-In . SVG Version: 6.00 Build 0)  -->
<svg version="1.1" id="Layer_1" xmlns="http://www.w3.org/2000/svg" xmlns:xlink="http://www.w3.org/1999/xlink" x="0px" y="0px"
	 viewBox="0 0 21 21" style="enable-background:new 0 0 21 21;" xml:space="preserve">
<style type="text/css">
	.st0{enable-background:new    ;}
	.st1{fill:#0B0A2C;}
</style>
<title>youtube-square - FontAwesome</title>
<g id="UI">
	<g id="Home" transform="translate(-186.000000, -2736.000000)">
		<g id="Footer" transform="translate(0.000000, 2591.000000)">
			<g id="Group-23" transform="translate(80.000000, 90.000000)">
				<g class="st0">
					<path class="st1" d="M126.8,71.9c0,2.1-1.7,3.9-3.9,3.9h-12.9c-2.1,0-3.9-1.7-3.9-3.9V59.1c0-2.1,1.7-3.9,3.9-3.9h12.9
						c2.1,0,3.9,1.7,3.9,3.9V71.9z M123.6,65.7c-0.2-0.8-0.8-1.4-1.6-1.4c-1.8-0.2-3.7-0.2-5.5-0.2c-1.8,0-3.7,0-5.5,0.2
						c-0.8,0.1-1.4,0.7-1.6,1.4c-0.3,1.1-0.3,2.3-0.3,3.5c0,1.1,0,2.4,0.3,3.5c0.2,0.8,0.8,1.4,1.6,1.4c1.8,0.2,3.7,0.2,5.5,0.2
						c1.8,0,3.7,0,5.5-0.2c0.8-0.1,1.4-0.7,1.6-1.4c0.3-1.1,0.3-2.3,0.3-3.5C123.9,68,123.9,66.8,123.6,65.7z M113.3,66.7h-1.1v5.7
						h-1v-5.7h-1v-0.9h3.1V66.7z M115,56.5h-1l-0.7,2.6l-0.7-2.6h-1c0.2,0.6,0.4,1.2,0.6,1.8c0.3,0.9,0.5,1.6,0.6,2.1v2.7h1v-2.7
						L115,56.5z M116,72.4h-0.9v-0.5c-0.3,0.4-0.7,0.6-1,0.6c-0.3,0-0.5-0.1-0.6-0.4c-0.1-0.1-0.1-0.4-0.1-0.7v-3.9h0.9v3.6
						c0,0.2,0,0.3,0,0.3c0,0.1,0.1,0.2,0.2,0.2c0.2,0,0.4-0.1,0.6-0.4v-3.8h0.9V72.4z M117.6,59.8c0-0.5-0.1-0.9-0.3-1.2
						c-0.3-0.3-0.6-0.5-1-0.5c-0.5,0-0.8,0.2-1,0.5c-0.2,0.3-0.3,0.6-0.3,1.2v1.7c0,0.5,0.1,0.9,0.3,1.2c0.2,0.3,0.6,0.5,1,0.5
						c0.4,0,0.8-0.2,1-0.5c0.2-0.2,0.3-0.6,0.3-1.2V59.8z M116.7,61.7c0,0.5-0.1,0.7-0.4,0.7c-0.3,0-0.4-0.2-0.4-0.7v-2.1
						c0-0.5,0.1-0.7,0.4-0.7c0.3,0,0.4,0.2,0.4,0.7V61.7z M119.4,70.9c0,0.4,0,0.8-0.1,1c-0.1,0.4-0.3,0.6-0.7,0.6
						c-0.3,0-0.6-0.2-0.9-0.5v0.5h-0.9v-6.6h0.9v2.2c0.3-0.3,0.6-0.5,0.9-0.5c0.4,0,0.6,0.2,0.7,0.6c0.1,0.2,0.1,0.5,0.1,1V70.9z
						 M118.5,68.8c0-0.4-0.1-0.7-0.4-0.7c-0.1,0-0.3,0.1-0.4,0.2v3c0.1,0.1,0.3,0.2,0.4,0.2c0.3,0,0.4-0.2,0.4-0.7V68.8z
						 M120.9,63.1v-5h-0.9V62c-0.2,0.3-0.4,0.4-0.6,0.4c-0.1,0-0.2-0.1-0.2-0.2c0,0,0-0.1,0-0.3v-3.6h-0.9v3.9c0,0.3,0,0.6,0.1,0.7
						c0.1,0.2,0.3,0.4,0.6,0.4c0.3,0,0.7-0.2,1-0.6v0.5H120.9z M122.8,70.8c0,0.3,0,0.5,0,0.6c0,0.2-0.1,0.4-0.2,0.5
						c-0.2,0.4-0.6,0.5-1.1,0.5c-0.5,0-0.8-0.2-1.1-0.5c-0.2-0.2-0.3-0.6-0.3-1.2V69c0-0.5,0.1-0.9,0.3-1.2c0.3-0.3,0.6-0.5,1.1-0.5
						c0.4,0,0.8,0.2,1,0.5c0.2,0.3,0.3,0.6,0.3,1.2v1H121v0.9c0,0.5,0.1,0.7,0.5,0.7c0.2,0,0.3-0.1,0.4-0.3c0-0.1,0-0.3,0-0.6h0.9
						V70.8z M121.9,69.3v-0.5c0-0.5-0.1-0.7-0.4-0.7s-0.4,0.2-0.4,0.7v0.5H121.9z"/>
				</g>
			</g>
		</g>
	</g>
</g>
</svg>
